<svg width="236" height="236" viewBox="0 0 236 236" fill="none" xmlns="http://www.w3.org/2000/svg">
<rect width="236" height="236" fill="white"/>
<path d="M8.92432 13.2485C8.92432 12.2922 9.05127 11.3739 9.30518 10.4937C9.56331 9.61344 9.94629 8.81364 10.4541 8.09424C10.9619 7.37484 11.4888 6.86702 12.0347 6.5708L12.2759 7.34521C11.658 7.81917 11.1502 8.54281 10.7524 9.51611C10.3589 10.4894 10.1431 11.5791 10.105 12.7852L10.0986 13.3247C10.0986 14.9582 10.397 16.3758 10.9937 17.5776C11.3534 18.297 11.7808 18.8599 12.2759 19.2661L12.0347 19.9834C11.4718 19.6702 10.9344 19.1455 10.4224 18.4092C9.42367 16.9704 8.92432 15.2502 8.92432 13.2485ZM19.0869 13.0581C19.0869 14.4334 18.8521 15.4554 18.3823 16.124C17.9126 16.7926 17.1784 17.127 16.1797 17.127C15.1937 17.127 14.4637 16.8011 13.9897 16.1494C13.5158 15.4935 13.2703 14.516 13.2534 13.2168V11.6489C13.2534 10.2905 13.4883 9.28125 13.958 8.62109C14.4277 7.96094 15.1641 7.63086 16.167 7.63086C17.1615 7.63086 17.8936 7.95036 18.3633 8.58936C18.833 9.22412 19.0742 10.2059 19.0869 11.5347V13.0581ZM17.9126 11.4521C17.9126 10.4577 17.7729 9.73405 17.4937 9.28125C17.2144 8.82422 16.7721 8.5957 16.167 8.5957C15.5661 8.5957 15.1281 8.8221 14.853 9.2749C14.578 9.7277 14.4362 10.4238 14.4277 11.3633V13.2422C14.4277 14.2409 14.5716 14.9793 14.8594 15.4575C15.1514 15.9315 15.5915 16.1685 16.1797 16.1685C16.7594 16.1685 17.189 15.9442 17.4683 15.4956C17.7518 15.047 17.8999 14.3403 17.9126 13.3755V11.4521ZM20.9468 17.7935H19.9375L23.7969 7.75781H24.7998L20.9468 17.7935ZM31.7441 13.0581C31.7441 14.4334 31.5093 15.4554 31.0396 16.124C30.5698 16.7926 29.8356 17.127 28.8369 17.127C27.8509 17.127 27.1209 16.8011 26.647 16.1494C26.173 15.4935 25.9276 14.516 25.9106 13.2168V11.6489C25.9106 10.2905 26.1455 9.28125 26.6152 8.62109C27.085 7.96094 27.8213 7.63086 28.8242 7.63086C29.8187 7.63086 30.5508 7.95036 31.0205 8.58936C31.4902 9.22412 31.7314 10.2059 31.7441 11.5347V13.0581ZM30.5698 11.4521C30.5698 10.4577 30.4302 9.73405 30.1509 9.28125C29.8716 8.82422 29.4294 8.5957 28.8242 8.5957C28.2233 8.5957 27.7853 8.8221 27.5103 9.2749C27.2352 9.7277 27.0934 10.4238 27.085 11.3633V13.2422C27.085 14.2409 27.2288 14.9793 27.5166 15.4575C27.8086 15.9315 28.2487 16.1685 28.8369 16.1685C29.4167 16.1685 29.8462 15.9442 30.1255 15.4956C30.409 15.047 30.5571 14.3403 30.5698 13.3755V11.4521ZM36.0796 13.312C36.0796 14.2557 35.9548 15.1613 35.7051 16.0288C35.4596 16.8921 35.0809 17.6898 34.5688 18.4219C34.061 19.154 33.5278 19.6745 32.9692 19.9834L32.7217 19.2661C33.3734 18.7668 33.896 17.9924 34.2896 16.9429C34.6873 15.8892 34.8905 14.7212 34.8989 13.439V13.2358C34.8989 12.3472 34.8058 11.522 34.6196 10.7603C34.4334 9.9943 34.1732 9.30876 33.8389 8.70361C33.5088 8.09847 33.1364 7.62663 32.7217 7.28809L32.9692 6.5708C33.5278 6.87972 34.0589 7.396 34.5625 8.11963C35.0703 8.84326 35.4491 9.64095 35.6987 10.5127C35.9526 11.3844 36.0796 12.3175 36.0796 13.312Z" fill="black"/>
<path d="M71.0146 9.42285L73.5708 5.33594H75.2261L71.8569 10.624L75.3066 16H73.6367L71.0146 11.8398L68.3779 16H66.7153L70.1724 10.624L66.7959 5.33594H68.4438L71.0146 9.42285Z" fill="#F54242"/>
<path d="M10.6899 70.0147L5.33594 67.2314L5.33594 65.6348L12.0229 69.3115H16V70.7178H12.0229L5.33594 74.3945L5.33594 72.7832L10.6899 70.0147Z" fill="#42F557"/>
<rect x="22" y="22" width="192" height="192" stroke="#9D9D9D"/>
<path d="M119.707 22.7071C120.098 22.3166 120.098 21.6834 119.707 21.2929L113.343 14.9289C112.953 14.5384 112.319 14.5384 111.929 14.9289C111.538 15.3195 111.538 15.9526 111.929 16.3431L117.586 22L111.929 27.6569C111.538 28.0474 111.538 28.6805 111.929 29.0711C112.319 29.4616 112.953 29.4616 113.343 29.0711L119.707 22.7071ZM23 23L119 23V21L23 21V23Z" fill="#F54242"/>
<path d="M21.2929 118.707C21.6834 119.098 22.3166 119.098 22.7071 118.707L29.0711 112.343C29.4616 111.953 29.4616 111.319 29.0711 110.929C28.6805 110.538 28.0474 110.538 27.6569 110.929L22 116.586L16.3431 110.929C15.9526 110.538 15.3195 110.538 14.9289 110.929C14.5384 111.319 14.5384 111.953 14.9289 112.343L21.2929 118.707ZM21 22L21 118H23L23 22H21Z" fill="#42F557"/>
<circle cx="22" cy="22" r="2" fill="black"/>
</svg>
