<svg width="512" height="512" viewBox="0 0 512 512" fill="none" xmlns="http://www.w3.org/2000/svg">
<rect width="512" height="512" fill="white"/>
<rect x="0.5" y="0.5" width="127" height="127" stroke="#9D9D9D"/>
<rect x="0.5" y="128.5" width="127" height="127" stroke="#9D9D9D"/>
<rect x="0.5" y="256.5" width="127" height="127" stroke="#9D9D9D"/>
<rect x="0.5" y="384.5" width="127" height="127" stroke="#9D9D9D"/>
<rect x="128.5" y="0.5" width="127" height="127" stroke="#9D9D9D"/>
<rect x="128.5" y="128.5" width="127" height="127" stroke="#9D9D9D"/>
<rect x="128.5" y="256.5" width="127" height="127" stroke="#9D9D9D"/>
<rect x="128.5" y="384.5" width="127" height="127" stroke="#9D9D9D"/>
<rect x="256.5" y="0.5" width="127" height="127" stroke="#9D9D9D"/>
<rect x="256.5" y="128.5" width="127" height="127" stroke="#9D9D9D"/>
<rect x="256.5" y="256.5" width="127" height="127" stroke="#9D9D9D"/>
<rect x="256.5" y="384.5" width="127" height="127" stroke="#9D9D9D"/>
<rect x="384.5" y="0.5" width="127" height="127" stroke="#9D9D9D"/>
<rect x="384.5" y="128.5" width="127" height="127" stroke="#9D9D9D"/>
<rect x="384.5" y="256.5" width="127" height="127" stroke="#9D9D9D"/>
<rect x="384.5" y="384.5" width="127" height="127" stroke="#9D9D9D"/>
<path d="M34.4336 64.7227C34.4336 67.2617 34 69.1484 33.1328 70.3828C32.2656 71.6172 30.9102 72.2344 29.0664 72.2344C27.2461 72.2344 25.8984 71.6328 25.0234 70.4297C24.1484 69.2188 23.6953 67.4141 23.6641 65.0156V62.1211C23.6641 59.6133 24.0977 57.75 24.9648 56.5312C25.832 55.3125 27.1914 54.7031 29.043 54.7031C30.8789 54.7031 32.2305 55.293 33.0977 56.4727C33.9648 57.6445 34.4102 59.457 34.4336 61.9102V64.7227ZM32.2656 61.7578C32.2656 59.9219 32.0078 58.5859 31.4922 57.75C30.9766 56.9062 30.1602 56.4844 29.043 56.4844C27.9336 56.4844 27.125 56.9023 26.6172 57.7383C26.1094 58.5742 25.8477 59.8594 25.832 61.5938V65.0625C25.832 66.9062 26.0977 68.2695 26.6289 69.1523C27.168 70.0273 27.9805 70.4648 29.0664 70.4648C30.1367 70.4648 30.9297 70.0508 31.4453 69.2227C31.9688 68.3945 32.2422 67.0898 32.2656 65.3086V61.7578ZM37.8672 73.4648H36.0039L43.1289 54.9375H44.9805L37.8672 73.4648ZM57.8008 64.7227C57.8008 67.2617 57.3672 69.1484 56.5 70.3828C55.6328 71.6172 54.2773 72.2344 52.4336 72.2344C50.6133 72.2344 49.2656 71.6328 48.3906 70.4297C47.5156 69.2188 47.0625 67.4141 47.0312 65.0156V62.1211C47.0312 59.6133 47.4648 57.75 48.332 56.5312C49.1992 55.3125 50.5586 54.7031 52.4102 54.7031C54.2461 54.7031 55.5977 55.293 56.4648 56.4727C57.332 57.6445 57.7773 59.457 57.8008 61.9102V64.7227ZM55.6328 61.7578C55.6328 59.9219 55.375 58.5859 54.8594 57.75C54.3438 56.9062 53.5273 56.4844 52.4102 56.4844C51.3008 56.4844 50.4922 56.9023 49.9844 57.7383C49.4766 58.5742 49.2148 59.8594 49.1992 61.5938V65.0625C49.1992 66.9062 49.4648 68.2695 49.9961 69.1523C50.5352 70.0273 51.3477 70.4648 52.4336 70.4648C53.5039 70.4648 54.2969 70.0508 54.8125 69.2227C55.3359 68.3945 55.6094 67.0898 55.6328 65.3086V61.7578ZM60.8477 70.8633C60.8477 70.4883 60.957 70.1758 61.1758 69.9258C61.4023 69.6758 61.7383 69.5508 62.1836 69.5508C62.6289 69.5508 62.9648 69.6758 63.1914 69.9258C63.4258 70.1758 63.543 70.4883 63.543 70.8633C63.543 71.2227 63.4258 71.5234 63.1914 71.7656C62.9648 72.0078 62.6289 72.1289 62.1836 72.1289C61.7383 72.1289 61.4023 72.0078 61.1758 71.7656C60.957 71.5234 60.8477 71.2227 60.8477 70.8633ZM77.8398 65.8008C77.8398 67.7305 77.3984 69.2852 76.5156 70.4648C75.6328 71.6445 74.4375 72.2344 72.9297 72.2344C71.3906 72.2344 70.1797 71.7461 69.2969 70.7695V76.875H67.1289V59.3203H69.1094L69.2148 60.7266C70.0977 59.6328 71.3242 59.0859 72.8945 59.0859C74.418 59.0859 75.6211 59.6602 76.5039 60.8086C77.3945 61.957 77.8398 63.5547 77.8398 65.6016V65.8008ZM75.6719 65.5547C75.6719 64.125 75.3672 62.9961 74.7578 62.168C74.1484 61.3398 73.3125 60.9258 72.25 60.9258C70.9375 60.9258 69.9531 61.5078 69.2969 62.6719V68.7305C69.9453 69.8867 70.9375 70.4648 72.2734 70.4648C73.3125 70.4648 74.1367 70.0547 74.7461 69.2344C75.3633 68.4062 75.6719 67.1797 75.6719 65.5547ZM82.6562 59.3203L82.7266 60.9141C83.6953 59.6953 84.9609 59.0859 86.5234 59.0859C89.2031 59.0859 90.5547 60.5977 90.5781 63.6211V72H88.4102V63.6094C88.4023 62.6953 88.1914 62.0195 87.7773 61.582C87.3711 61.1445 86.7344 60.9258 85.8672 60.9258C85.1641 60.9258 84.5469 61.1133 84.0156 61.4883C83.4844 61.8633 83.0703 62.3555 82.7734 62.9648V72H80.6055V59.3203H82.6562ZM93.332 65.5547C93.332 63.5781 93.7891 62.0078 94.7031 60.8438C95.6172 59.6719 96.8281 59.0859 98.3359 59.0859C99.8828 59.0859 101.09 59.6328 101.957 60.7266L102.062 59.3203H104.043V71.6953C104.043 73.3359 103.555 74.6289 102.578 75.5742C101.609 76.5195 100.305 76.9922 98.6641 76.9922C97.75 76.9922 96.8555 76.7969 95.9805 76.4062C95.1055 76.0156 94.4375 75.4805 93.9766 74.8008L95.1016 73.5C96.0312 74.6484 97.168 75.2227 98.5117 75.2227C99.5664 75.2227 100.387 74.9258 100.973 74.332C101.566 73.7383 101.863 72.9023 101.863 71.8242V70.7344C100.996 71.7344 99.8125 72.2344 98.3125 72.2344C96.8281 72.2344 95.625 71.6367 94.7031 70.4414C93.7891 69.2461 93.332 67.6172 93.332 65.5547ZM95.5117 65.8008C95.5117 67.2305 95.8047 68.3555 96.3906 69.1758C96.9766 69.9883 97.7969 70.3945 98.8516 70.3945C100.219 70.3945 101.223 69.7734 101.863 68.5312V62.7422C101.199 61.5312 100.203 60.9258 98.875 60.9258C97.8203 60.9258 96.9961 61.3359 96.4023 62.1562C95.8086 62.9766 95.5117 64.1914 95.5117 65.8008Z" fill="black"/>
<path d="M34.4336 192.723C34.4336 195.262 34 197.148 33.1328 198.383C32.2656 199.617 30.9102 200.234 29.0664 200.234C27.2461 200.234 25.8984 199.633 25.0234 198.43C24.1484 197.219 23.6953 195.414 23.6641 193.016V190.121C23.6641 187.613 24.0977 185.75 24.9648 184.531C25.832 183.312 27.1914 182.703 29.043 182.703C30.8789 182.703 32.2305 183.293 33.0977 184.473C33.9648 185.645 34.4102 187.457 34.4336 189.91V192.723ZM32.2656 189.758C32.2656 187.922 32.0078 186.586 31.4922 185.75C30.9766 184.906 30.1602 184.484 29.043 184.484C27.9336 184.484 27.125 184.902 26.6172 185.738C26.1094 186.574 25.8477 187.859 25.832 189.594V193.062C25.832 194.906 26.0977 196.27 26.6289 197.152C27.168 198.027 27.9805 198.465 29.0664 198.465C30.1367 198.465 30.9297 198.051 31.4453 197.223C31.9688 196.395 32.2422 195.09 32.2656 193.309V189.758ZM37.8672 201.465H36.0039L43.1289 182.938H44.9805L37.8672 201.465ZM54.2266 200H52.0469V185.551L47.6758 187.156V185.188L53.8867 182.855H54.2266V200ZM60.8477 198.863C60.8477 198.488 60.957 198.176 61.1758 197.926C61.4023 197.676 61.7383 197.551 62.1836 197.551C62.6289 197.551 62.9648 197.676 63.1914 197.926C63.4258 198.176 63.543 198.488 63.543 198.863C63.543 199.223 63.4258 199.523 63.1914 199.766C62.9648 200.008 62.6289 200.129 62.1836 200.129C61.7383 200.129 61.4023 200.008 61.1758 199.766C60.957 199.523 60.8477 199.223 60.8477 198.863ZM77.8398 193.801C77.8398 195.73 77.3984 197.285 76.5156 198.465C75.6328 199.645 74.4375 200.234 72.9297 200.234C71.3906 200.234 70.1797 199.746 69.2969 198.77V204.875H67.1289V187.32H69.1094L69.2148 188.727C70.0977 187.633 71.3242 187.086 72.8945 187.086C74.418 187.086 75.6211 187.66 76.5039 188.809C77.3945 189.957 77.8398 191.555 77.8398 193.602V193.801ZM75.6719 193.555C75.6719 192.125 75.3672 190.996 74.7578 190.168C74.1484 189.34 73.3125 188.926 72.25 188.926C70.9375 188.926 69.9531 189.508 69.2969 190.672V196.73C69.9453 197.887 70.9375 198.465 72.2734 198.465C73.3125 198.465 74.1367 198.055 74.7461 197.234C75.3633 196.406 75.6719 195.18 75.6719 193.555ZM82.6562 187.32L82.7266 188.914C83.6953 187.695 84.9609 187.086 86.5234 187.086C89.2031 187.086 90.5547 188.598 90.5781 191.621V200H88.4102V191.609C88.4023 190.695 88.1914 190.02 87.7773 189.582C87.3711 189.145 86.7344 188.926 85.8672 188.926C85.1641 188.926 84.5469 189.113 84.0156 189.488C83.4844 189.863 83.0703 190.355 82.7734 190.965V200H80.6055V187.32H82.6562ZM93.332 193.555C93.332 191.578 93.7891 190.008 94.7031 188.844C95.6172 187.672 96.8281 187.086 98.3359 187.086C99.8828 187.086 101.09 187.633 101.957 188.727L102.062 187.32H104.043V199.695C104.043 201.336 103.555 202.629 102.578 203.574C101.609 204.52 100.305 204.992 98.6641 204.992C97.75 204.992 96.8555 204.797 95.9805 204.406C95.1055 204.016 94.4375 203.48 93.9766 202.801L95.1016 201.5C96.0312 202.648 97.168 203.223 98.5117 203.223C99.5664 203.223 100.387 202.926 100.973 202.332C101.566 201.738 101.863 200.902 101.863 199.824V198.734C100.996 199.734 99.8125 200.234 98.3125 200.234C96.8281 200.234 95.625 199.637 94.7031 198.441C93.7891 197.246 93.332 195.617 93.332 193.555ZM95.5117 193.801C95.5117 195.23 95.8047 196.355 96.3906 197.176C96.9766 197.988 97.7969 198.395 98.8516 198.395C100.219 198.395 101.223 197.773 101.863 196.531V190.742C101.199 189.531 100.203 188.926 98.875 188.926C97.8203 188.926 96.9961 189.336 96.4023 190.156C95.8086 190.977 95.5117 192.191 95.5117 193.801Z" fill="black"/>
<path d="M34.4336 320.723C34.4336 323.262 34 325.148 33.1328 326.383C32.2656 327.617 30.9102 328.234 29.0664 328.234C27.2461 328.234 25.8984 327.633 25.0234 326.43C24.1484 325.219 23.6953 323.414 23.6641 321.016V318.121C23.6641 315.613 24.0977 313.75 24.9648 312.531C25.832 311.312 27.1914 310.703 29.043 310.703C30.8789 310.703 32.2305 311.293 33.0977 312.473C33.9648 313.645 34.4102 315.457 34.4336 317.91V320.723ZM32.2656 317.758C32.2656 315.922 32.0078 314.586 31.4922 313.75C30.9766 312.906 30.1602 312.484 29.043 312.484C27.9336 312.484 27.125 312.902 26.6172 313.738C26.1094 314.574 25.8477 315.859 25.832 317.594V321.062C25.832 322.906 26.0977 324.27 26.6289 325.152C27.168 326.027 27.9805 326.465 29.0664 326.465C30.1367 326.465 30.9297 326.051 31.4453 325.223C31.9688 324.395 32.2422 323.09 32.2656 321.309V317.758ZM37.8672 329.465H36.0039L43.1289 310.938H44.9805L37.8672 329.465ZM58.2812 328H47.1016V326.441L53.0078 319.879C53.8828 318.887 54.4844 318.082 54.8125 317.465C55.1484 316.84 55.3164 316.195 55.3164 315.531C55.3164 314.641 55.0469 313.91 54.5078 313.34C53.9688 312.77 53.25 312.484 52.3516 312.484C51.2734 312.484 50.4336 312.793 49.832 313.41C49.2383 314.02 48.9414 314.871 48.9414 315.965H46.7734C46.7734 314.395 47.2773 313.125 48.2852 312.156C49.3008 311.188 50.6562 310.703 52.3516 310.703C53.9375 310.703 55.1914 311.121 56.1133 311.957C57.0352 312.785 57.4961 313.891 57.4961 315.273C57.4961 316.953 56.4258 318.953 54.2852 321.273L49.7148 326.23H58.2812V328ZM60.8477 326.863C60.8477 326.488 60.957 326.176 61.1758 325.926C61.4023 325.676 61.7383 325.551 62.1836 325.551C62.6289 325.551 62.9648 325.676 63.1914 325.926C63.4258 326.176 63.543 326.488 63.543 326.863C63.543 327.223 63.4258 327.523 63.1914 327.766C62.9648 328.008 62.6289 328.129 62.1836 328.129C61.7383 328.129 61.4023 328.008 61.1758 327.766C60.957 327.523 60.8477 327.223 60.8477 326.863ZM77.8398 321.801C77.8398 323.73 77.3984 325.285 76.5156 326.465C75.6328 327.645 74.4375 328.234 72.9297 328.234C71.3906 328.234 70.1797 327.746 69.2969 326.77V332.875H67.1289V315.32H69.1094L69.2148 316.727C70.0977 315.633 71.3242 315.086 72.8945 315.086C74.418 315.086 75.6211 315.66 76.5039 316.809C77.3945 317.957 77.8398 319.555 77.8398 321.602V321.801ZM75.6719 321.555C75.6719 320.125 75.3672 318.996 74.7578 318.168C74.1484 317.34 73.3125 316.926 72.25 316.926C70.9375 316.926 69.9531 317.508 69.2969 318.672V324.73C69.9453 325.887 70.9375 326.465 72.2734 326.465C73.3125 326.465 74.1367 326.055 74.7461 325.234C75.3633 324.406 75.6719 323.18 75.6719 321.555ZM82.6562 315.32L82.7266 316.914C83.6953 315.695 84.9609 315.086 86.5234 315.086C89.2031 315.086 90.5547 316.598 90.5781 319.621V328H88.4102V319.609C88.4023 318.695 88.1914 318.02 87.7773 317.582C87.3711 317.145 86.7344 316.926 85.8672 316.926C85.1641 316.926 84.5469 317.113 84.0156 317.488C83.4844 317.863 83.0703 318.355 82.7734 318.965V328H80.6055V315.32H82.6562ZM93.332 321.555C93.332 319.578 93.7891 318.008 94.7031 316.844C95.6172 315.672 96.8281 315.086 98.3359 315.086C99.8828 315.086 101.09 315.633 101.957 316.727L102.062 315.32H104.043V327.695C104.043 329.336 103.555 330.629 102.578 331.574C101.609 332.52 100.305 332.992 98.6641 332.992C97.75 332.992 96.8555 332.797 95.9805 332.406C95.1055 332.016 94.4375 331.48 93.9766 330.801L95.1016 329.5C96.0312 330.648 97.168 331.223 98.5117 331.223C99.5664 331.223 100.387 330.926 100.973 330.332C101.566 329.738 101.863 328.902 101.863 327.824V326.734C100.996 327.734 99.8125 328.234 98.3125 328.234C96.8281 328.234 95.625 327.637 94.7031 326.441C93.7891 325.246 93.332 323.617 93.332 321.555ZM95.5117 321.801C95.5117 323.23 95.8047 324.355 96.3906 325.176C96.9766 325.988 97.7969 326.395 98.8516 326.395C100.219 326.395 101.223 325.773 101.863 324.531V318.742C101.199 317.531 100.203 316.926 98.875 316.926C97.8203 316.926 96.9961 317.336 96.4023 318.156C95.8086 318.977 95.5117 320.191 95.5117 321.801Z" fill="black"/>
<path d="M34.4336 448.723C34.4336 451.262 34 453.148 33.1328 454.383C32.2656 455.617 30.9102 456.234 29.0664 456.234C27.2461 456.234 25.8984 455.633 25.0234 454.43C24.1484 453.219 23.6953 451.414 23.6641 449.016V446.121C23.6641 443.613 24.0977 441.75 24.9648 440.531C25.832 439.312 27.1914 438.703 29.043 438.703C30.8789 438.703 32.2305 439.293 33.0977 440.473C33.9648 441.645 34.4102 443.457 34.4336 445.91V448.723ZM32.2656 445.758C32.2656 443.922 32.0078 442.586 31.4922 441.75C30.9766 440.906 30.1602 440.484 29.043 440.484C27.9336 440.484 27.125 440.902 26.6172 441.738C26.1094 442.574 25.8477 443.859 25.832 445.594V449.062C25.832 450.906 26.0977 452.27 26.6289 453.152C27.168 454.027 27.9805 454.465 29.0664 454.465C30.1367 454.465 30.9297 454.051 31.4453 453.223C31.9688 452.395 32.2422 451.09 32.2656 449.309V445.758ZM37.8672 457.465H36.0039L43.1289 438.938H44.9805L37.8672 457.465ZM50.2539 446.414H51.8828C52.9062 446.398 53.7109 446.129 54.2969 445.605C54.8828 445.082 55.1758 444.375 55.1758 443.484C55.1758 441.484 54.1797 440.484 52.1875 440.484C51.25 440.484 50.5 440.754 49.9375 441.293C49.3828 441.824 49.1055 442.531 49.1055 443.414H46.9375C46.9375 442.062 47.4297 440.941 48.4141 440.051C49.4062 439.152 50.6641 438.703 52.1875 438.703C53.7969 438.703 55.0586 439.129 55.9727 439.98C56.8867 440.832 57.3438 442.016 57.3438 443.531C57.3438 444.273 57.1016 444.992 56.6172 445.688C56.1406 446.383 55.4883 446.902 54.6602 447.246C55.5977 447.543 56.3203 448.035 56.8281 448.723C57.3438 449.41 57.6016 450.25 57.6016 451.242C57.6016 452.773 57.1016 453.988 56.1016 454.887C55.1016 455.785 53.8008 456.234 52.1992 456.234C50.5977 456.234 49.293 455.801 48.2852 454.934C47.2852 454.066 46.7852 452.922 46.7852 451.5H48.9648C48.9648 452.398 49.2578 453.117 49.8438 453.656C50.4297 454.195 51.2148 454.465 52.1992 454.465C53.2461 454.465 54.0469 454.191 54.6016 453.645C55.1562 453.098 55.4336 452.312 55.4336 451.289C55.4336 450.297 55.1289 449.535 54.5195 449.004C53.9102 448.473 53.0312 448.199 51.8828 448.184H50.2539V446.414ZM60.8477 454.863C60.8477 454.488 60.957 454.176 61.1758 453.926C61.4023 453.676 61.7383 453.551 62.1836 453.551C62.6289 453.551 62.9648 453.676 63.1914 453.926C63.4258 454.176 63.543 454.488 63.543 454.863C63.543 455.223 63.4258 455.523 63.1914 455.766C62.9648 456.008 62.6289 456.129 62.1836 456.129C61.7383 456.129 61.4023 456.008 61.1758 455.766C60.957 455.523 60.8477 455.223 60.8477 454.863ZM77.8398 449.801C77.8398 451.73 77.3984 453.285 76.5156 454.465C75.6328 455.645 74.4375 456.234 72.9297 456.234C71.3906 456.234 70.1797 455.746 69.2969 454.77V460.875H67.1289V443.32H69.1094L69.2148 444.727C70.0977 443.633 71.3242 443.086 72.8945 443.086C74.418 443.086 75.6211 443.66 76.5039 444.809C77.3945 445.957 77.8398 447.555 77.8398 449.602V449.801ZM75.6719 449.555C75.6719 448.125 75.3672 446.996 74.7578 446.168C74.1484 445.34 73.3125 444.926 72.25 444.926C70.9375 444.926 69.9531 445.508 69.2969 446.672V452.73C69.9453 453.887 70.9375 454.465 72.2734 454.465C73.3125 454.465 74.1367 454.055 74.7461 453.234C75.3633 452.406 75.6719 451.18 75.6719 449.555ZM82.6562 443.32L82.7266 444.914C83.6953 443.695 84.9609 443.086 86.5234 443.086C89.2031 443.086 90.5547 444.598 90.5781 447.621V456H88.4102V447.609C88.4023 446.695 88.1914 446.02 87.7773 445.582C87.3711 445.145 86.7344 444.926 85.8672 444.926C85.1641 444.926 84.5469 445.113 84.0156 445.488C83.4844 445.863 83.0703 446.355 82.7734 446.965V456H80.6055V443.32H82.6562ZM93.332 449.555C93.332 447.578 93.7891 446.008 94.7031 444.844C95.6172 443.672 96.8281 443.086 98.3359 443.086C99.8828 443.086 101.09 443.633 101.957 444.727L102.062 443.32H104.043V455.695C104.043 457.336 103.555 458.629 102.578 459.574C101.609 460.52 100.305 460.992 98.6641 460.992C97.75 460.992 96.8555 460.797 95.9805 460.406C95.1055 460.016 94.4375 459.48 93.9766 458.801L95.1016 457.5C96.0312 458.648 97.168 459.223 98.5117 459.223C99.5664 459.223 100.387 458.926 100.973 458.332C101.566 457.738 101.863 456.902 101.863 455.824V454.734C100.996 455.734 99.8125 456.234 98.3125 456.234C96.8281 456.234 95.625 455.637 94.7031 454.441C93.7891 453.246 93.332 451.617 93.332 449.555ZM95.5117 449.801C95.5117 451.23 95.8047 452.355 96.3906 453.176C96.9766 453.988 97.7969 454.395 98.8516 454.395C100.219 454.395 101.223 453.773 101.863 452.531V446.742C101.199 445.531 100.203 444.926 98.875 444.926C97.8203 444.926 96.9961 445.336 96.4023 446.156C95.8086 446.977 95.5117 448.191 95.5117 449.801Z" fill="black"/>
<path d="M158.859 72H156.68V57.5508L152.309 59.1562V57.1875L158.52 54.8555H158.859V72ZM165.867 73.4648H164.004L171.129 54.9375H172.98L165.867 73.4648ZM185.801 64.7227C185.801 67.2617 185.367 69.1484 184.5 70.3828C183.633 71.6172 182.277 72.2344 180.434 72.2344C178.613 72.2344 177.266 71.6328 176.391 70.4297C175.516 69.2188 175.062 67.4141 175.031 65.0156V62.1211C175.031 59.6133 175.465 57.75 176.332 56.5312C177.199 55.3125 178.559 54.7031 180.41 54.7031C182.246 54.7031 183.598 55.293 184.465 56.4727C185.332 57.6445 185.777 59.457 185.801 61.9102V64.7227ZM183.633 61.7578C183.633 59.9219 183.375 58.5859 182.859 57.75C182.344 56.9062 181.527 56.4844 180.41 56.4844C179.301 56.4844 178.492 56.9023 177.984 57.7383C177.477 58.5742 177.215 59.8594 177.199 61.5938V65.0625C177.199 66.9062 177.465 68.2695 177.996 69.1523C178.535 70.0273 179.348 70.4648 180.434 70.4648C181.504 70.4648 182.297 70.0508 182.812 69.2227C183.336 68.3945 183.609 67.0898 183.633 65.3086V61.7578ZM188.848 70.8633C188.848 70.4883 188.957 70.1758 189.176 69.9258C189.402 69.6758 189.738 69.5508 190.184 69.5508C190.629 69.5508 190.965 69.6758 191.191 69.9258C191.426 70.1758 191.543 70.4883 191.543 70.8633C191.543 71.2227 191.426 71.5234 191.191 71.7656C190.965 72.0078 190.629 72.1289 190.184 72.1289C189.738 72.1289 189.402 72.0078 189.176 71.7656C188.957 71.5234 188.848 71.2227 188.848 70.8633ZM205.84 65.8008C205.84 67.7305 205.398 69.2852 204.516 70.4648C203.633 71.6445 202.438 72.2344 200.93 72.2344C199.391 72.2344 198.18 71.7461 197.297 70.7695V76.875H195.129V59.3203H197.109L197.215 60.7266C198.098 59.6328 199.324 59.0859 200.895 59.0859C202.418 59.0859 203.621 59.6602 204.504 60.8086C205.395 61.957 205.84 63.5547 205.84 65.6016V65.8008ZM203.672 65.5547C203.672 64.125 203.367 62.9961 202.758 62.168C202.148 61.3398 201.312 60.9258 200.25 60.9258C198.938 60.9258 197.953 61.5078 197.297 62.6719V68.7305C197.945 69.8867 198.938 70.4648 200.273 70.4648C201.312 70.4648 202.137 70.0547 202.746 69.2344C203.363 68.4062 203.672 67.1797 203.672 65.5547ZM210.656 59.3203L210.727 60.9141C211.695 59.6953 212.961 59.0859 214.523 59.0859C217.203 59.0859 218.555 60.5977 218.578 63.6211V72H216.41V63.6094C216.402 62.6953 216.191 62.0195 215.777 61.582C215.371 61.1445 214.734 60.9258 213.867 60.9258C213.164 60.9258 212.547 61.1133 212.016 61.4883C211.484 61.8633 211.07 62.3555 210.773 62.9648V72H208.605V59.3203H210.656ZM221.332 65.5547C221.332 63.5781 221.789 62.0078 222.703 60.8438C223.617 59.6719 224.828 59.0859 226.336 59.0859C227.883 59.0859 229.09 59.6328 229.957 60.7266L230.062 59.3203H232.043V71.6953C232.043 73.3359 231.555 74.6289 230.578 75.5742C229.609 76.5195 228.305 76.9922 226.664 76.9922C225.75 76.9922 224.855 76.7969 223.98 76.4062C223.105 76.0156 222.438 75.4805 221.977 74.8008L223.102 73.5C224.031 74.6484 225.168 75.2227 226.512 75.2227C227.566 75.2227 228.387 74.9258 228.973 74.332C229.566 73.7383 229.863 72.9023 229.863 71.8242V70.7344C228.996 71.7344 227.812 72.2344 226.312 72.2344C224.828 72.2344 223.625 71.6367 222.703 70.4414C221.789 69.2461 221.332 67.6172 221.332 65.5547ZM223.512 65.8008C223.512 67.2305 223.805 68.3555 224.391 69.1758C224.977 69.9883 225.797 70.3945 226.852 70.3945C228.219 70.3945 229.223 69.7734 229.863 68.5312V62.7422C229.199 61.5312 228.203 60.9258 226.875 60.9258C225.82 60.9258 224.996 61.3359 224.402 62.1562C223.809 62.9766 223.512 64.1914 223.512 65.8008Z" fill="black"/>
<path d="M158.859 200H156.68V185.551L152.309 187.156V185.188L158.52 182.855H158.859V200ZM165.867 201.465H164.004L171.129 182.938H172.98L165.867 201.465ZM182.227 200H180.047V185.551L175.676 187.156V185.188L181.887 182.855H182.227V200ZM188.848 198.863C188.848 198.488 188.957 198.176 189.176 197.926C189.402 197.676 189.738 197.551 190.184 197.551C190.629 197.551 190.965 197.676 191.191 197.926C191.426 198.176 191.543 198.488 191.543 198.863C191.543 199.223 191.426 199.523 191.191 199.766C190.965 200.008 190.629 200.129 190.184 200.129C189.738 200.129 189.402 200.008 189.176 199.766C188.957 199.523 188.848 199.223 188.848 198.863ZM205.84 193.801C205.84 195.73 205.398 197.285 204.516 198.465C203.633 199.645 202.438 200.234 200.93 200.234C199.391 200.234 198.18 199.746 197.297 198.77V204.875H195.129V187.32H197.109L197.215 188.727C198.098 187.633 199.324 187.086 200.895 187.086C202.418 187.086 203.621 187.66 204.504 188.809C205.395 189.957 205.84 191.555 205.84 193.602V193.801ZM203.672 193.555C203.672 192.125 203.367 190.996 202.758 190.168C202.148 189.34 201.312 188.926 200.25 188.926C198.938 188.926 197.953 189.508 197.297 190.672V196.73C197.945 197.887 198.938 198.465 200.273 198.465C201.312 198.465 202.137 198.055 202.746 197.234C203.363 196.406 203.672 195.18 203.672 193.555ZM210.656 187.32L210.727 188.914C211.695 187.695 212.961 187.086 214.523 187.086C217.203 187.086 218.555 188.598 218.578 191.621V200H216.41V191.609C216.402 190.695 216.191 190.02 215.777 189.582C215.371 189.145 214.734 188.926 213.867 188.926C213.164 188.926 212.547 189.113 212.016 189.488C211.484 189.863 211.07 190.355 210.773 190.965V200H208.605V187.32H210.656ZM221.332 193.555C221.332 191.578 221.789 190.008 222.703 188.844C223.617 187.672 224.828 187.086 226.336 187.086C227.883 187.086 229.09 187.633 229.957 188.727L230.062 187.32H232.043V199.695C232.043 201.336 231.555 202.629 230.578 203.574C229.609 204.52 228.305 204.992 226.664 204.992C225.75 204.992 224.855 204.797 223.98 204.406C223.105 204.016 222.438 203.48 221.977 202.801L223.102 201.5C224.031 202.648 225.168 203.223 226.512 203.223C227.566 203.223 228.387 202.926 228.973 202.332C229.566 201.738 229.863 200.902 229.863 199.824V198.734C228.996 199.734 227.812 200.234 226.312 200.234C224.828 200.234 223.625 199.637 222.703 198.441C221.789 197.246 221.332 195.617 221.332 193.555ZM223.512 193.801C223.512 195.23 223.805 196.355 224.391 197.176C224.977 197.988 225.797 198.395 226.852 198.395C228.219 198.395 229.223 197.773 229.863 196.531V190.742C229.199 189.531 228.203 188.926 226.875 188.926C225.82 188.926 224.996 189.336 224.402 190.156C223.809 190.977 223.512 192.191 223.512 193.801Z" fill="black"/>
<path d="M158.859 328H156.68V313.551L152.309 315.156V313.188L158.52 310.855H158.859V328ZM165.867 329.465H164.004L171.129 310.938H172.98L165.867 329.465ZM186.281 328H175.102V326.441L181.008 319.879C181.883 318.887 182.484 318.082 182.812 317.465C183.148 316.84 183.316 316.195 183.316 315.531C183.316 314.641 183.047 313.91 182.508 313.34C181.969 312.77 181.25 312.484 180.352 312.484C179.273 312.484 178.434 312.793 177.832 313.41C177.238 314.02 176.941 314.871 176.941 315.965H174.773C174.773 314.395 175.277 313.125 176.285 312.156C177.301 311.188 178.656 310.703 180.352 310.703C181.938 310.703 183.191 311.121 184.113 311.957C185.035 312.785 185.496 313.891 185.496 315.273C185.496 316.953 184.426 318.953 182.285 321.273L177.715 326.23H186.281V328ZM188.848 326.863C188.848 326.488 188.957 326.176 189.176 325.926C189.402 325.676 189.738 325.551 190.184 325.551C190.629 325.551 190.965 325.676 191.191 325.926C191.426 326.176 191.543 326.488 191.543 326.863C191.543 327.223 191.426 327.523 191.191 327.766C190.965 328.008 190.629 328.129 190.184 328.129C189.738 328.129 189.402 328.008 189.176 327.766C188.957 327.523 188.848 327.223 188.848 326.863ZM205.84 321.801C205.84 323.73 205.398 325.285 204.516 326.465C203.633 327.645 202.438 328.234 200.93 328.234C199.391 328.234 198.18 327.746 197.297 326.77V332.875H195.129V315.32H197.109L197.215 316.727C198.098 315.633 199.324 315.086 200.895 315.086C202.418 315.086 203.621 315.66 204.504 316.809C205.395 317.957 205.84 319.555 205.84 321.602V321.801ZM203.672 321.555C203.672 320.125 203.367 318.996 202.758 318.168C202.148 317.34 201.312 316.926 200.25 316.926C198.938 316.926 197.953 317.508 197.297 318.672V324.73C197.945 325.887 198.938 326.465 200.273 326.465C201.312 326.465 202.137 326.055 202.746 325.234C203.363 324.406 203.672 323.18 203.672 321.555ZM210.656 315.32L210.727 316.914C211.695 315.695 212.961 315.086 214.523 315.086C217.203 315.086 218.555 316.598 218.578 319.621V328H216.41V319.609C216.402 318.695 216.191 318.02 215.777 317.582C215.371 317.145 214.734 316.926 213.867 316.926C213.164 316.926 212.547 317.113 212.016 317.488C211.484 317.863 211.07 318.355 210.773 318.965V328H208.605V315.32H210.656ZM221.332 321.555C221.332 319.578 221.789 318.008 222.703 316.844C223.617 315.672 224.828 315.086 226.336 315.086C227.883 315.086 229.09 315.633 229.957 316.727L230.062 315.32H232.043V327.695C232.043 329.336 231.555 330.629 230.578 331.574C229.609 332.52 228.305 332.992 226.664 332.992C225.75 332.992 224.855 332.797 223.98 332.406C223.105 332.016 222.438 331.48 221.977 330.801L223.102 329.5C224.031 330.648 225.168 331.223 226.512 331.223C227.566 331.223 228.387 330.926 228.973 330.332C229.566 329.738 229.863 328.902 229.863 327.824V326.734C228.996 327.734 227.812 328.234 226.312 328.234C224.828 328.234 223.625 327.637 222.703 326.441C221.789 325.246 221.332 323.617 221.332 321.555ZM223.512 321.801C223.512 323.23 223.805 324.355 224.391 325.176C224.977 325.988 225.797 326.395 226.852 326.395C228.219 326.395 229.223 325.773 229.863 324.531V318.742C229.199 317.531 228.203 316.926 226.875 316.926C225.82 316.926 224.996 317.336 224.402 318.156C223.809 318.977 223.512 320.191 223.512 321.801Z" fill="black"/>
<path d="M158.859 456H156.68V441.551L152.309 443.156V441.188L158.52 438.855H158.859V456ZM165.867 457.465H164.004L171.129 438.938H172.98L165.867 457.465ZM178.254 446.414H179.883C180.906 446.398 181.711 446.129 182.297 445.605C182.883 445.082 183.176 444.375 183.176 443.484C183.176 441.484 182.18 440.484 180.188 440.484C179.25 440.484 178.5 440.754 177.938 441.293C177.383 441.824 177.105 442.531 177.105 443.414H174.938C174.938 442.062 175.43 440.941 176.414 440.051C177.406 439.152 178.664 438.703 180.188 438.703C181.797 438.703 183.059 439.129 183.973 439.98C184.887 440.832 185.344 442.016 185.344 443.531C185.344 444.273 185.102 444.992 184.617 445.688C184.141 446.383 183.488 446.902 182.66 447.246C183.598 447.543 184.32 448.035 184.828 448.723C185.344 449.41 185.602 450.25 185.602 451.242C185.602 452.773 185.102 453.988 184.102 454.887C183.102 455.785 181.801 456.234 180.199 456.234C178.598 456.234 177.293 455.801 176.285 454.934C175.285 454.066 174.785 452.922 174.785 451.5H176.965C176.965 452.398 177.258 453.117 177.844 453.656C178.43 454.195 179.215 454.465 180.199 454.465C181.246 454.465 182.047 454.191 182.602 453.645C183.156 453.098 183.434 452.312 183.434 451.289C183.434 450.297 183.129 449.535 182.52 449.004C181.91 448.473 181.031 448.199 179.883 448.184H178.254V446.414ZM188.848 454.863C188.848 454.488 188.957 454.176 189.176 453.926C189.402 453.676 189.738 453.551 190.184 453.551C190.629 453.551 190.965 453.676 191.191 453.926C191.426 454.176 191.543 454.488 191.543 454.863C191.543 455.223 191.426 455.523 191.191 455.766C190.965 456.008 190.629 456.129 190.184 456.129C189.738 456.129 189.402 456.008 189.176 455.766C188.957 455.523 188.848 455.223 188.848 454.863ZM205.84 449.801C205.84 451.73 205.398 453.285 204.516 454.465C203.633 455.645 202.438 456.234 200.93 456.234C199.391 456.234 198.18 455.746 197.297 454.77V460.875H195.129V443.32H197.109L197.215 444.727C198.098 443.633 199.324 443.086 200.895 443.086C202.418 443.086 203.621 443.66 204.504 444.809C205.395 445.957 205.84 447.555 205.84 449.602V449.801ZM203.672 449.555C203.672 448.125 203.367 446.996 202.758 446.168C202.148 445.34 201.312 444.926 200.25 444.926C198.938 444.926 197.953 445.508 197.297 446.672V452.73C197.945 453.887 198.938 454.465 200.273 454.465C201.312 454.465 202.137 454.055 202.746 453.234C203.363 452.406 203.672 451.18 203.672 449.555ZM210.656 443.32L210.727 444.914C211.695 443.695 212.961 443.086 214.523 443.086C217.203 443.086 218.555 444.598 218.578 447.621V456H216.41V447.609C216.402 446.695 216.191 446.02 215.777 445.582C215.371 445.145 214.734 444.926 213.867 444.926C213.164 444.926 212.547 445.113 212.016 445.488C211.484 445.863 211.07 446.355 210.773 446.965V456H208.605V443.32H210.656ZM221.332 449.555C221.332 447.578 221.789 446.008 222.703 444.844C223.617 443.672 224.828 443.086 226.336 443.086C227.883 443.086 229.09 443.633 229.957 444.727L230.062 443.32H232.043V455.695C232.043 457.336 231.555 458.629 230.578 459.574C229.609 460.52 228.305 460.992 226.664 460.992C225.75 460.992 224.855 460.797 223.98 460.406C223.105 460.016 222.438 459.48 221.977 458.801L223.102 457.5C224.031 458.648 225.168 459.223 226.512 459.223C227.566 459.223 228.387 458.926 228.973 458.332C229.566 457.738 229.863 456.902 229.863 455.824V454.734C228.996 455.734 227.812 456.234 226.312 456.234C224.828 456.234 223.625 455.637 222.703 454.441C221.789 453.246 221.332 451.617 221.332 449.555ZM223.512 449.801C223.512 451.23 223.805 452.355 224.391 453.176C224.977 453.988 225.797 454.395 226.852 454.395C228.219 454.395 229.223 453.773 229.863 452.531V446.742C229.199 445.531 228.203 444.926 226.875 444.926C225.82 444.926 224.996 445.336 224.402 446.156C223.809 446.977 223.512 448.191 223.512 449.801Z" fill="black"/>
<path d="M290.914 72H279.734V70.4414L285.641 63.8789C286.516 62.8867 287.117 62.082 287.445 61.4648C287.781 60.8398 287.949 60.1953 287.949 59.5312C287.949 58.6406 287.68 57.9102 287.141 57.3398C286.602 56.7695 285.883 56.4844 284.984 56.4844C283.906 56.4844 283.066 56.793 282.465 57.4102C281.871 58.0195 281.574 58.8711 281.574 59.9648H279.406C279.406 58.3945 279.91 57.125 280.918 56.1562C281.934 55.1875 283.289 54.7031 284.984 54.7031C286.57 54.7031 287.824 55.1211 288.746 55.957C289.668 56.7852 290.129 57.8906 290.129 59.2734C290.129 60.9531 289.059 62.9531 286.918 65.2734L282.348 70.2305H290.914V72ZM293.867 73.4648H292.004L299.129 54.9375H300.98L293.867 73.4648ZM313.801 64.7227C313.801 67.2617 313.367 69.1484 312.5 70.3828C311.633 71.6172 310.277 72.2344 308.434 72.2344C306.613 72.2344 305.266 71.6328 304.391 70.4297C303.516 69.2188 303.062 67.4141 303.031 65.0156V62.1211C303.031 59.6133 303.465 57.75 304.332 56.5312C305.199 55.3125 306.559 54.7031 308.41 54.7031C310.246 54.7031 311.598 55.293 312.465 56.4727C313.332 57.6445 313.777 59.457 313.801 61.9102V64.7227ZM311.633 61.7578C311.633 59.9219 311.375 58.5859 310.859 57.75C310.344 56.9062 309.527 56.4844 308.41 56.4844C307.301 56.4844 306.492 56.9023 305.984 57.7383C305.477 58.5742 305.215 59.8594 305.199 61.5938V65.0625C305.199 66.9062 305.465 68.2695 305.996 69.1523C306.535 70.0273 307.348 70.4648 308.434 70.4648C309.504 70.4648 310.297 70.0508 310.812 69.2227C311.336 68.3945 311.609 67.0898 311.633 65.3086V61.7578ZM316.848 70.8633C316.848 70.4883 316.957 70.1758 317.176 69.9258C317.402 69.6758 317.738 69.5508 318.184 69.5508C318.629 69.5508 318.965 69.6758 319.191 69.9258C319.426 70.1758 319.543 70.4883 319.543 70.8633C319.543 71.2227 319.426 71.5234 319.191 71.7656C318.965 72.0078 318.629 72.1289 318.184 72.1289C317.738 72.1289 317.402 72.0078 317.176 71.7656C316.957 71.5234 316.848 71.2227 316.848 70.8633ZM333.84 65.8008C333.84 67.7305 333.398 69.2852 332.516 70.4648C331.633 71.6445 330.438 72.2344 328.93 72.2344C327.391 72.2344 326.18 71.7461 325.297 70.7695V76.875H323.129V59.3203H325.109L325.215 60.7266C326.098 59.6328 327.324 59.0859 328.895 59.0859C330.418 59.0859 331.621 59.6602 332.504 60.8086C333.395 61.957 333.84 63.5547 333.84 65.6016V65.8008ZM331.672 65.5547C331.672 64.125 331.367 62.9961 330.758 62.168C330.148 61.3398 329.312 60.9258 328.25 60.9258C326.938 60.9258 325.953 61.5078 325.297 62.6719V68.7305C325.945 69.8867 326.938 70.4648 328.273 70.4648C329.312 70.4648 330.137 70.0547 330.746 69.2344C331.363 68.4062 331.672 67.1797 331.672 65.5547ZM338.656 59.3203L338.727 60.9141C339.695 59.6953 340.961 59.0859 342.523 59.0859C345.203 59.0859 346.555 60.5977 346.578 63.6211V72H344.41V63.6094C344.402 62.6953 344.191 62.0195 343.777 61.582C343.371 61.1445 342.734 60.9258 341.867 60.9258C341.164 60.9258 340.547 61.1133 340.016 61.4883C339.484 61.8633 339.07 62.3555 338.773 62.9648V72H336.605V59.3203H338.656ZM349.332 65.5547C349.332 63.5781 349.789 62.0078 350.703 60.8438C351.617 59.6719 352.828 59.0859 354.336 59.0859C355.883 59.0859 357.09 59.6328 357.957 60.7266L358.062 59.3203H360.043V71.6953C360.043 73.3359 359.555 74.6289 358.578 75.5742C357.609 76.5195 356.305 76.9922 354.664 76.9922C353.75 76.9922 352.855 76.7969 351.98 76.4062C351.105 76.0156 350.438 75.4805 349.977 74.8008L351.102 73.5C352.031 74.6484 353.168 75.2227 354.512 75.2227C355.566 75.2227 356.387 74.9258 356.973 74.332C357.566 73.7383 357.863 72.9023 357.863 71.8242V70.7344C356.996 71.7344 355.812 72.2344 354.312 72.2344C352.828 72.2344 351.625 71.6367 350.703 70.4414C349.789 69.2461 349.332 67.6172 349.332 65.5547ZM351.512 65.8008C351.512 67.2305 351.805 68.3555 352.391 69.1758C352.977 69.9883 353.797 70.3945 354.852 70.3945C356.219 70.3945 357.223 69.7734 357.863 68.5312V62.7422C357.199 61.5312 356.203 60.9258 354.875 60.9258C353.82 60.9258 352.996 61.3359 352.402 62.1562C351.809 62.9766 351.512 64.1914 351.512 65.8008Z" fill="black"/>
<path d="M290.914 200H279.734V198.441L285.641 191.879C286.516 190.887 287.117 190.082 287.445 189.465C287.781 188.84 287.949 188.195 287.949 187.531C287.949 186.641 287.68 185.91 287.141 185.34C286.602 184.77 285.883 184.484 284.984 184.484C283.906 184.484 283.066 184.793 282.465 185.41C281.871 186.02 281.574 186.871 281.574 187.965H279.406C279.406 186.395 279.91 185.125 280.918 184.156C281.934 183.188 283.289 182.703 284.984 182.703C286.57 182.703 287.824 183.121 288.746 183.957C289.668 184.785 290.129 185.891 290.129 187.273C290.129 188.953 289.059 190.953 286.918 193.273L282.348 198.23H290.914V200ZM293.867 201.465H292.004L299.129 182.938H300.98L293.867 201.465ZM310.227 200H308.047V185.551L303.676 187.156V185.188L309.887 182.855H310.227V200ZM316.848 198.863C316.848 198.488 316.957 198.176 317.176 197.926C317.402 197.676 317.738 197.551 318.184 197.551C318.629 197.551 318.965 197.676 319.191 197.926C319.426 198.176 319.543 198.488 319.543 198.863C319.543 199.223 319.426 199.523 319.191 199.766C318.965 200.008 318.629 200.129 318.184 200.129C317.738 200.129 317.402 200.008 317.176 199.766C316.957 199.523 316.848 199.223 316.848 198.863ZM333.84 193.801C333.84 195.73 333.398 197.285 332.516 198.465C331.633 199.645 330.438 200.234 328.93 200.234C327.391 200.234 326.18 199.746 325.297 198.77V204.875H323.129V187.32H325.109L325.215 188.727C326.098 187.633 327.324 187.086 328.895 187.086C330.418 187.086 331.621 187.66 332.504 188.809C333.395 189.957 333.84 191.555 333.84 193.602V193.801ZM331.672 193.555C331.672 192.125 331.367 190.996 330.758 190.168C330.148 189.34 329.312 188.926 328.25 188.926C326.938 188.926 325.953 189.508 325.297 190.672V196.73C325.945 197.887 326.938 198.465 328.273 198.465C329.312 198.465 330.137 198.055 330.746 197.234C331.363 196.406 331.672 195.18 331.672 193.555ZM338.656 187.32L338.727 188.914C339.695 187.695 340.961 187.086 342.523 187.086C345.203 187.086 346.555 188.598 346.578 191.621V200H344.41V191.609C344.402 190.695 344.191 190.02 343.777 189.582C343.371 189.145 342.734 188.926 341.867 188.926C341.164 188.926 340.547 189.113 340.016 189.488C339.484 189.863 339.07 190.355 338.773 190.965V200H336.605V187.32H338.656ZM349.332 193.555C349.332 191.578 349.789 190.008 350.703 188.844C351.617 187.672 352.828 187.086 354.336 187.086C355.883 187.086 357.09 187.633 357.957 188.727L358.062 187.32H360.043V199.695C360.043 201.336 359.555 202.629 358.578 203.574C357.609 204.52 356.305 204.992 354.664 204.992C353.75 204.992 352.855 204.797 351.98 204.406C351.105 204.016 350.438 203.48 349.977 202.801L351.102 201.5C352.031 202.648 353.168 203.223 354.512 203.223C355.566 203.223 356.387 202.926 356.973 202.332C357.566 201.738 357.863 200.902 357.863 199.824V198.734C356.996 199.734 355.812 200.234 354.312 200.234C352.828 200.234 351.625 199.637 350.703 198.441C349.789 197.246 349.332 195.617 349.332 193.555ZM351.512 193.801C351.512 195.23 351.805 196.355 352.391 197.176C352.977 197.988 353.797 198.395 354.852 198.395C356.219 198.395 357.223 197.773 357.863 196.531V190.742C357.199 189.531 356.203 188.926 354.875 188.926C353.82 188.926 352.996 189.336 352.402 190.156C351.809 190.977 351.512 192.191 351.512 193.801Z" fill="black"/>
<path d="M290.914 328H279.734V326.441L285.641 319.879C286.516 318.887 287.117 318.082 287.445 317.465C287.781 316.84 287.949 316.195 287.949 315.531C287.949 314.641 287.68 313.91 287.141 313.34C286.602 312.77 285.883 312.484 284.984 312.484C283.906 312.484 283.066 312.793 282.465 313.41C281.871 314.02 281.574 314.871 281.574 315.965H279.406C279.406 314.395 279.91 313.125 280.918 312.156C281.934 311.188 283.289 310.703 284.984 310.703C286.57 310.703 287.824 311.121 288.746 311.957C289.668 312.785 290.129 313.891 290.129 315.273C290.129 316.953 289.059 318.953 286.918 321.273L282.348 326.23H290.914V328ZM293.867 329.465H292.004L299.129 310.938H300.98L293.867 329.465ZM314.281 328H303.102V326.441L309.008 319.879C309.883 318.887 310.484 318.082 310.812 317.465C311.148 316.84 311.316 316.195 311.316 315.531C311.316 314.641 311.047 313.91 310.508 313.34C309.969 312.77 309.25 312.484 308.352 312.484C307.273 312.484 306.434 312.793 305.832 313.41C305.238 314.02 304.941 314.871 304.941 315.965H302.773C302.773 314.395 303.277 313.125 304.285 312.156C305.301 311.188 306.656 310.703 308.352 310.703C309.938 310.703 311.191 311.121 312.113 311.957C313.035 312.785 313.496 313.891 313.496 315.273C313.496 316.953 312.426 318.953 310.285 321.273L305.715 326.23H314.281V328ZM316.848 326.863C316.848 326.488 316.957 326.176 317.176 325.926C317.402 325.676 317.738 325.551 318.184 325.551C318.629 325.551 318.965 325.676 319.191 325.926C319.426 326.176 319.543 326.488 319.543 326.863C319.543 327.223 319.426 327.523 319.191 327.766C318.965 328.008 318.629 328.129 318.184 328.129C317.738 328.129 317.402 328.008 317.176 327.766C316.957 327.523 316.848 327.223 316.848 326.863ZM333.84 321.801C333.84 323.73 333.398 325.285 332.516 326.465C331.633 327.645 330.438 328.234 328.93 328.234C327.391 328.234 326.18 327.746 325.297 326.77V332.875H323.129V315.32H325.109L325.215 316.727C326.098 315.633 327.324 315.086 328.895 315.086C330.418 315.086 331.621 315.66 332.504 316.809C333.395 317.957 333.84 319.555 333.84 321.602V321.801ZM331.672 321.555C331.672 320.125 331.367 318.996 330.758 318.168C330.148 317.34 329.312 316.926 328.25 316.926C326.938 316.926 325.953 317.508 325.297 318.672V324.73C325.945 325.887 326.938 326.465 328.273 326.465C329.312 326.465 330.137 326.055 330.746 325.234C331.363 324.406 331.672 323.18 331.672 321.555ZM338.656 315.32L338.727 316.914C339.695 315.695 340.961 315.086 342.523 315.086C345.203 315.086 346.555 316.598 346.578 319.621V328H344.41V319.609C344.402 318.695 344.191 318.02 343.777 317.582C343.371 317.145 342.734 316.926 341.867 316.926C341.164 316.926 340.547 317.113 340.016 317.488C339.484 317.863 339.07 318.355 338.773 318.965V328H336.605V315.32H338.656ZM349.332 321.555C349.332 319.578 349.789 318.008 350.703 316.844C351.617 315.672 352.828 315.086 354.336 315.086C355.883 315.086 357.09 315.633 357.957 316.727L358.062 315.32H360.043V327.695C360.043 329.336 359.555 330.629 358.578 331.574C357.609 332.52 356.305 332.992 354.664 332.992C353.75 332.992 352.855 332.797 351.98 332.406C351.105 332.016 350.438 331.48 349.977 330.801L351.102 329.5C352.031 330.648 353.168 331.223 354.512 331.223C355.566 331.223 356.387 330.926 356.973 330.332C357.566 329.738 357.863 328.902 357.863 327.824V326.734C356.996 327.734 355.812 328.234 354.312 328.234C352.828 328.234 351.625 327.637 350.703 326.441C349.789 325.246 349.332 323.617 349.332 321.555ZM351.512 321.801C351.512 323.23 351.805 324.355 352.391 325.176C352.977 325.988 353.797 326.395 354.852 326.395C356.219 326.395 357.223 325.773 357.863 324.531V318.742C357.199 317.531 356.203 316.926 354.875 316.926C353.82 316.926 352.996 317.336 352.402 318.156C351.809 318.977 351.512 320.191 351.512 321.801Z" fill="black"/>
<path d="M290.914 456H279.734V454.441L285.641 447.879C286.516 446.887 287.117 446.082 287.445 445.465C287.781 444.84 287.949 444.195 287.949 443.531C287.949 442.641 287.68 441.91 287.141 441.34C286.602 440.77 285.883 440.484 284.984 440.484C283.906 440.484 283.066 440.793 282.465 441.41C281.871 442.02 281.574 442.871 281.574 443.965H279.406C279.406 442.395 279.91 441.125 280.918 440.156C281.934 439.188 283.289 438.703 284.984 438.703C286.57 438.703 287.824 439.121 288.746 439.957C289.668 440.785 290.129 441.891 290.129 443.273C290.129 444.953 289.059 446.953 286.918 449.273L282.348 454.23H290.914V456ZM293.867 457.465H292.004L299.129 438.938H300.98L293.867 457.465ZM306.254 446.414H307.883C308.906 446.398 309.711 446.129 310.297 445.605C310.883 445.082 311.176 444.375 311.176 443.484C311.176 441.484 310.18 440.484 308.188 440.484C307.25 440.484 306.5 440.754 305.938 441.293C305.383 441.824 305.105 442.531 305.105 443.414H302.938C302.938 442.062 303.43 440.941 304.414 440.051C305.406 439.152 306.664 438.703 308.188 438.703C309.797 438.703 311.059 439.129 311.973 439.98C312.887 440.832 313.344 442.016 313.344 443.531C313.344 444.273 313.102 444.992 312.617 445.688C312.141 446.383 311.488 446.902 310.66 447.246C311.598 447.543 312.32 448.035 312.828 448.723C313.344 449.41 313.602 450.25 313.602 451.242C313.602 452.773 313.102 453.988 312.102 454.887C311.102 455.785 309.801 456.234 308.199 456.234C306.598 456.234 305.293 455.801 304.285 454.934C303.285 454.066 302.785 452.922 302.785 451.5H304.965C304.965 452.398 305.258 453.117 305.844 453.656C306.43 454.195 307.215 454.465 308.199 454.465C309.246 454.465 310.047 454.191 310.602 453.645C311.156 453.098 311.434 452.312 311.434 451.289C311.434 450.297 311.129 449.535 310.52 449.004C309.91 448.473 309.031 448.199 307.883 448.184H306.254V446.414ZM316.848 454.863C316.848 454.488 316.957 454.176 317.176 453.926C317.402 453.676 317.738 453.551 318.184 453.551C318.629 453.551 318.965 453.676 319.191 453.926C319.426 454.176 319.543 454.488 319.543 454.863C319.543 455.223 319.426 455.523 319.191 455.766C318.965 456.008 318.629 456.129 318.184 456.129C317.738 456.129 317.402 456.008 317.176 455.766C316.957 455.523 316.848 455.223 316.848 454.863ZM333.84 449.801C333.84 451.73 333.398 453.285 332.516 454.465C331.633 455.645 330.438 456.234 328.93 456.234C327.391 456.234 326.18 455.746 325.297 454.77V460.875H323.129V443.32H325.109L325.215 444.727C326.098 443.633 327.324 443.086 328.895 443.086C330.418 443.086 331.621 443.66 332.504 444.809C333.395 445.957 333.84 447.555 333.84 449.602V449.801ZM331.672 449.555C331.672 448.125 331.367 446.996 330.758 446.168C330.148 445.34 329.312 444.926 328.25 444.926C326.938 444.926 325.953 445.508 325.297 446.672V452.73C325.945 453.887 326.938 454.465 328.273 454.465C329.312 454.465 330.137 454.055 330.746 453.234C331.363 452.406 331.672 451.18 331.672 449.555ZM338.656 443.32L338.727 444.914C339.695 443.695 340.961 443.086 342.523 443.086C345.203 443.086 346.555 444.598 346.578 447.621V456H344.41V447.609C344.402 446.695 344.191 446.02 343.777 445.582C343.371 445.145 342.734 444.926 341.867 444.926C341.164 444.926 340.547 445.113 340.016 445.488C339.484 445.863 339.07 446.355 338.773 446.965V456H336.605V443.32H338.656ZM349.332 449.555C349.332 447.578 349.789 446.008 350.703 444.844C351.617 443.672 352.828 443.086 354.336 443.086C355.883 443.086 357.09 443.633 357.957 444.727L358.062 443.32H360.043V455.695C360.043 457.336 359.555 458.629 358.578 459.574C357.609 460.52 356.305 460.992 354.664 460.992C353.75 460.992 352.855 460.797 351.98 460.406C351.105 460.016 350.438 459.48 349.977 458.801L351.102 457.5C352.031 458.648 353.168 459.223 354.512 459.223C355.566 459.223 356.387 458.926 356.973 458.332C357.566 457.738 357.863 456.902 357.863 455.824V454.734C356.996 455.734 355.812 456.234 354.312 456.234C352.828 456.234 351.625 455.637 350.703 454.441C349.789 453.246 349.332 451.617 349.332 449.555ZM351.512 449.801C351.512 451.23 351.805 452.355 352.391 453.176C352.977 453.988 353.797 454.395 354.852 454.395C356.219 454.395 357.223 453.773 357.863 452.531V446.742C357.199 445.531 356.203 444.926 354.875 444.926C353.82 444.926 352.996 445.336 352.402 446.156C351.809 446.977 351.512 448.191 351.512 449.801Z" fill="black"/>
<path d="M410.887 62.4141H412.516C413.539 62.3984 414.344 62.1289 414.93 61.6055C415.516 61.082 415.809 60.375 415.809 59.4844C415.809 57.4844 414.812 56.4844 412.82 56.4844C411.883 56.4844 411.133 56.7539 410.57 57.293C410.016 57.8242 409.738 58.5312 409.738 59.4141H407.57C407.57 58.0625 408.062 56.9414 409.047 56.0508C410.039 55.1523 411.297 54.7031 412.82 54.7031C414.43 54.7031 415.691 55.1289 416.605 55.9805C417.52 56.832 417.977 58.0156 417.977 59.5312C417.977 60.2734 417.734 60.9922 417.25 61.6875C416.773 62.3828 416.121 62.9023 415.293 63.2461C416.23 63.543 416.953 64.0352 417.461 64.7227C417.977 65.4102 418.234 66.25 418.234 67.2422C418.234 68.7734 417.734 69.9883 416.734 70.8867C415.734 71.7852 414.434 72.2344 412.832 72.2344C411.23 72.2344 409.926 71.8008 408.918 70.9336C407.918 70.0664 407.418 68.9219 407.418 67.5H409.598C409.598 68.3984 409.891 69.1172 410.477 69.6562C411.062 70.1953 411.848 70.4648 412.832 70.4648C413.879 70.4648 414.68 70.1914 415.234 69.6445C415.789 69.0977 416.066 68.3125 416.066 67.2891C416.066 66.2969 415.762 65.5352 415.152 65.0039C414.543 64.4727 413.664 64.1992 412.516 64.1836H410.887V62.4141ZM421.867 73.4648H420.004L427.129 54.9375H428.98L421.867 73.4648ZM441.801 64.7227C441.801 67.2617 441.367 69.1484 440.5 70.3828C439.633 71.6172 438.277 72.2344 436.434 72.2344C434.613 72.2344 433.266 71.6328 432.391 70.4297C431.516 69.2188 431.062 67.4141 431.031 65.0156V62.1211C431.031 59.6133 431.465 57.75 432.332 56.5312C433.199 55.3125 434.559 54.7031 436.41 54.7031C438.246 54.7031 439.598 55.293 440.465 56.4727C441.332 57.6445 441.777 59.457 441.801 61.9102V64.7227ZM439.633 61.7578C439.633 59.9219 439.375 58.5859 438.859 57.75C438.344 56.9062 437.527 56.4844 436.41 56.4844C435.301 56.4844 434.492 56.9023 433.984 57.7383C433.477 58.5742 433.215 59.8594 433.199 61.5938V65.0625C433.199 66.9062 433.465 68.2695 433.996 69.1523C434.535 70.0273 435.348 70.4648 436.434 70.4648C437.504 70.4648 438.297 70.0508 438.812 69.2227C439.336 68.3945 439.609 67.0898 439.633 65.3086V61.7578ZM444.848 70.8633C444.848 70.4883 444.957 70.1758 445.176 69.9258C445.402 69.6758 445.738 69.5508 446.184 69.5508C446.629 69.5508 446.965 69.6758 447.191 69.9258C447.426 70.1758 447.543 70.4883 447.543 70.8633C447.543 71.2227 447.426 71.5234 447.191 71.7656C446.965 72.0078 446.629 72.1289 446.184 72.1289C445.738 72.1289 445.402 72.0078 445.176 71.7656C444.957 71.5234 444.848 71.2227 444.848 70.8633ZM461.84 65.8008C461.84 67.7305 461.398 69.2852 460.516 70.4648C459.633 71.6445 458.438 72.2344 456.93 72.2344C455.391 72.2344 454.18 71.7461 453.297 70.7695V76.875H451.129V59.3203H453.109L453.215 60.7266C454.098 59.6328 455.324 59.0859 456.895 59.0859C458.418 59.0859 459.621 59.6602 460.504 60.8086C461.395 61.957 461.84 63.5547 461.84 65.6016V65.8008ZM459.672 65.5547C459.672 64.125 459.367 62.9961 458.758 62.168C458.148 61.3398 457.312 60.9258 456.25 60.9258C454.938 60.9258 453.953 61.5078 453.297 62.6719V68.7305C453.945 69.8867 454.938 70.4648 456.273 70.4648C457.312 70.4648 458.137 70.0547 458.746 69.2344C459.363 68.4062 459.672 67.1797 459.672 65.5547ZM466.656 59.3203L466.727 60.9141C467.695 59.6953 468.961 59.0859 470.523 59.0859C473.203 59.0859 474.555 60.5977 474.578 63.6211V72H472.41V63.6094C472.402 62.6953 472.191 62.0195 471.777 61.582C471.371 61.1445 470.734 60.9258 469.867 60.9258C469.164 60.9258 468.547 61.1133 468.016 61.4883C467.484 61.8633 467.07 62.3555 466.773 62.9648V72H464.605V59.3203H466.656ZM477.332 65.5547C477.332 63.5781 477.789 62.0078 478.703 60.8438C479.617 59.6719 480.828 59.0859 482.336 59.0859C483.883 59.0859 485.09 59.6328 485.957 60.7266L486.062 59.3203H488.043V71.6953C488.043 73.3359 487.555 74.6289 486.578 75.5742C485.609 76.5195 484.305 76.9922 482.664 76.9922C481.75 76.9922 480.855 76.7969 479.98 76.4062C479.105 76.0156 478.438 75.4805 477.977 74.8008L479.102 73.5C480.031 74.6484 481.168 75.2227 482.512 75.2227C483.566 75.2227 484.387 74.9258 484.973 74.332C485.566 73.7383 485.863 72.9023 485.863 71.8242V70.7344C484.996 71.7344 483.812 72.2344 482.312 72.2344C480.828 72.2344 479.625 71.6367 478.703 70.4414C477.789 69.2461 477.332 67.6172 477.332 65.5547ZM479.512 65.8008C479.512 67.2305 479.805 68.3555 480.391 69.1758C480.977 69.9883 481.797 70.3945 482.852 70.3945C484.219 70.3945 485.223 69.7734 485.863 68.5312V62.7422C485.199 61.5312 484.203 60.9258 482.875 60.9258C481.82 60.9258 480.996 61.3359 480.402 62.1562C479.809 62.9766 479.512 64.1914 479.512 65.8008Z" fill="black"/>
<path d="M410.887 190.414H412.516C413.539 190.398 414.344 190.129 414.93 189.605C415.516 189.082 415.809 188.375 415.809 187.484C415.809 185.484 414.812 184.484 412.82 184.484C411.883 184.484 411.133 184.754 410.57 185.293C410.016 185.824 409.738 186.531 409.738 187.414H407.57C407.57 186.062 408.062 184.941 409.047 184.051C410.039 183.152 411.297 182.703 412.82 182.703C414.43 182.703 415.691 183.129 416.605 183.98C417.52 184.832 417.977 186.016 417.977 187.531C417.977 188.273 417.734 188.992 417.25 189.688C416.773 190.383 416.121 190.902 415.293 191.246C416.23 191.543 416.953 192.035 417.461 192.723C417.977 193.41 418.234 194.25 418.234 195.242C418.234 196.773 417.734 197.988 416.734 198.887C415.734 199.785 414.434 200.234 412.832 200.234C411.23 200.234 409.926 199.801 408.918 198.934C407.918 198.066 407.418 196.922 407.418 195.5H409.598C409.598 196.398 409.891 197.117 410.477 197.656C411.062 198.195 411.848 198.465 412.832 198.465C413.879 198.465 414.68 198.191 415.234 197.645C415.789 197.098 416.066 196.312 416.066 195.289C416.066 194.297 415.762 193.535 415.152 193.004C414.543 192.473 413.664 192.199 412.516 192.184H410.887V190.414ZM421.867 201.465H420.004L427.129 182.938H428.98L421.867 201.465ZM438.227 200H436.047V185.551L431.676 187.156V185.188L437.887 182.855H438.227V200ZM444.848 198.863C444.848 198.488 444.957 198.176 445.176 197.926C445.402 197.676 445.738 197.551 446.184 197.551C446.629 197.551 446.965 197.676 447.191 197.926C447.426 198.176 447.543 198.488 447.543 198.863C447.543 199.223 447.426 199.523 447.191 199.766C446.965 200.008 446.629 200.129 446.184 200.129C445.738 200.129 445.402 200.008 445.176 199.766C444.957 199.523 444.848 199.223 444.848 198.863ZM461.84 193.801C461.84 195.73 461.398 197.285 460.516 198.465C459.633 199.645 458.438 200.234 456.93 200.234C455.391 200.234 454.18 199.746 453.297 198.77V204.875H451.129V187.32H453.109L453.215 188.727C454.098 187.633 455.324 187.086 456.895 187.086C458.418 187.086 459.621 187.66 460.504 188.809C461.395 189.957 461.84 191.555 461.84 193.602V193.801ZM459.672 193.555C459.672 192.125 459.367 190.996 458.758 190.168C458.148 189.34 457.312 188.926 456.25 188.926C454.938 188.926 453.953 189.508 453.297 190.672V196.73C453.945 197.887 454.938 198.465 456.273 198.465C457.312 198.465 458.137 198.055 458.746 197.234C459.363 196.406 459.672 195.18 459.672 193.555ZM466.656 187.32L466.727 188.914C467.695 187.695 468.961 187.086 470.523 187.086C473.203 187.086 474.555 188.598 474.578 191.621V200H472.41V191.609C472.402 190.695 472.191 190.02 471.777 189.582C471.371 189.145 470.734 188.926 469.867 188.926C469.164 188.926 468.547 189.113 468.016 189.488C467.484 189.863 467.07 190.355 466.773 190.965V200H464.605V187.32H466.656ZM477.332 193.555C477.332 191.578 477.789 190.008 478.703 188.844C479.617 187.672 480.828 187.086 482.336 187.086C483.883 187.086 485.09 187.633 485.957 188.727L486.062 187.32H488.043V199.695C488.043 201.336 487.555 202.629 486.578 203.574C485.609 204.52 484.305 204.992 482.664 204.992C481.75 204.992 480.855 204.797 479.98 204.406C479.105 204.016 478.438 203.48 477.977 202.801L479.102 201.5C480.031 202.648 481.168 203.223 482.512 203.223C483.566 203.223 484.387 202.926 484.973 202.332C485.566 201.738 485.863 200.902 485.863 199.824V198.734C484.996 199.734 483.812 200.234 482.312 200.234C480.828 200.234 479.625 199.637 478.703 198.441C477.789 197.246 477.332 195.617 477.332 193.555ZM479.512 193.801C479.512 195.23 479.805 196.355 480.391 197.176C480.977 197.988 481.797 198.395 482.852 198.395C484.219 198.395 485.223 197.773 485.863 196.531V190.742C485.199 189.531 484.203 188.926 482.875 188.926C481.82 188.926 480.996 189.336 480.402 190.156C479.809 190.977 479.512 192.191 479.512 193.801Z" fill="black"/>
<path d="M410.887 318.414H412.516C413.539 318.398 414.344 318.129 414.93 317.605C415.516 317.082 415.809 316.375 415.809 315.484C415.809 313.484 414.812 312.484 412.82 312.484C411.883 312.484 411.133 312.754 410.57 313.293C410.016 313.824 409.738 314.531 409.738 315.414H407.57C407.57 314.062 408.062 312.941 409.047 312.051C410.039 311.152 411.297 310.703 412.82 310.703C414.43 310.703 415.691 311.129 416.605 311.98C417.52 312.832 417.977 314.016 417.977 315.531C417.977 316.273 417.734 316.992 417.25 317.688C416.773 318.383 416.121 318.902 415.293 319.246C416.23 319.543 416.953 320.035 417.461 320.723C417.977 321.41 418.234 322.25 418.234 323.242C418.234 324.773 417.734 325.988 416.734 326.887C415.734 327.785 414.434 328.234 412.832 328.234C411.23 328.234 409.926 327.801 408.918 326.934C407.918 326.066 407.418 324.922 407.418 323.5H409.598C409.598 324.398 409.891 325.117 410.477 325.656C411.062 326.195 411.848 326.465 412.832 326.465C413.879 326.465 414.68 326.191 415.234 325.645C415.789 325.098 416.066 324.312 416.066 323.289C416.066 322.297 415.762 321.535 415.152 321.004C414.543 320.473 413.664 320.199 412.516 320.184H410.887V318.414ZM421.867 329.465H420.004L427.129 310.938H428.98L421.867 329.465ZM442.281 328H431.102V326.441L437.008 319.879C437.883 318.887 438.484 318.082 438.812 317.465C439.148 316.84 439.316 316.195 439.316 315.531C439.316 314.641 439.047 313.91 438.508 313.34C437.969 312.77 437.25 312.484 436.352 312.484C435.273 312.484 434.434 312.793 433.832 313.41C433.238 314.02 432.941 314.871 432.941 315.965H430.773C430.773 314.395 431.277 313.125 432.285 312.156C433.301 311.188 434.656 310.703 436.352 310.703C437.938 310.703 439.191 311.121 440.113 311.957C441.035 312.785 441.496 313.891 441.496 315.273C441.496 316.953 440.426 318.953 438.285 321.273L433.715 326.23H442.281V328ZM444.848 326.863C444.848 326.488 444.957 326.176 445.176 325.926C445.402 325.676 445.738 325.551 446.184 325.551C446.629 325.551 446.965 325.676 447.191 325.926C447.426 326.176 447.543 326.488 447.543 326.863C447.543 327.223 447.426 327.523 447.191 327.766C446.965 328.008 446.629 328.129 446.184 328.129C445.738 328.129 445.402 328.008 445.176 327.766C444.957 327.523 444.848 327.223 444.848 326.863ZM461.84 321.801C461.84 323.73 461.398 325.285 460.516 326.465C459.633 327.645 458.438 328.234 456.93 328.234C455.391 328.234 454.18 327.746 453.297 326.77V332.875H451.129V315.32H453.109L453.215 316.727C454.098 315.633 455.324 315.086 456.895 315.086C458.418 315.086 459.621 315.66 460.504 316.809C461.395 317.957 461.84 319.555 461.84 321.602V321.801ZM459.672 321.555C459.672 320.125 459.367 318.996 458.758 318.168C458.148 317.34 457.312 316.926 456.25 316.926C454.938 316.926 453.953 317.508 453.297 318.672V324.73C453.945 325.887 454.938 326.465 456.273 326.465C457.312 326.465 458.137 326.055 458.746 325.234C459.363 324.406 459.672 323.18 459.672 321.555ZM466.656 315.32L466.727 316.914C467.695 315.695 468.961 315.086 470.523 315.086C473.203 315.086 474.555 316.598 474.578 319.621V328H472.41V319.609C472.402 318.695 472.191 318.02 471.777 317.582C471.371 317.145 470.734 316.926 469.867 316.926C469.164 316.926 468.547 317.113 468.016 317.488C467.484 317.863 467.07 318.355 466.773 318.965V328H464.605V315.32H466.656ZM477.332 321.555C477.332 319.578 477.789 318.008 478.703 316.844C479.617 315.672 480.828 315.086 482.336 315.086C483.883 315.086 485.09 315.633 485.957 316.727L486.062 315.32H488.043V327.695C488.043 329.336 487.555 330.629 486.578 331.574C485.609 332.52 484.305 332.992 482.664 332.992C481.75 332.992 480.855 332.797 479.98 332.406C479.105 332.016 478.438 331.48 477.977 330.801L479.102 329.5C480.031 330.648 481.168 331.223 482.512 331.223C483.566 331.223 484.387 330.926 484.973 330.332C485.566 329.738 485.863 328.902 485.863 327.824V326.734C484.996 327.734 483.812 328.234 482.312 328.234C480.828 328.234 479.625 327.637 478.703 326.441C477.789 325.246 477.332 323.617 477.332 321.555ZM479.512 321.801C479.512 323.23 479.805 324.355 480.391 325.176C480.977 325.988 481.797 326.395 482.852 326.395C484.219 326.395 485.223 325.773 485.863 324.531V318.742C485.199 317.531 484.203 316.926 482.875 316.926C481.82 316.926 480.996 317.336 480.402 318.156C479.809 318.977 479.512 320.191 479.512 321.801Z" fill="black"/>
<path d="M410.887 446.414H412.516C413.539 446.398 414.344 446.129 414.93 445.605C415.516 445.082 415.809 444.375 415.809 443.484C415.809 441.484 414.812 440.484 412.82 440.484C411.883 440.484 411.133 440.754 410.57 441.293C410.016 441.824 409.738 442.531 409.738 443.414H407.57C407.57 442.062 408.062 440.941 409.047 440.051C410.039 439.152 411.297 438.703 412.82 438.703C414.43 438.703 415.691 439.129 416.605 439.98C417.52 440.832 417.977 442.016 417.977 443.531C417.977 444.273 417.734 444.992 417.25 445.688C416.773 446.383 416.121 446.902 415.293 447.246C416.23 447.543 416.953 448.035 417.461 448.723C417.977 449.41 418.234 450.25 418.234 451.242C418.234 452.773 417.734 453.988 416.734 454.887C415.734 455.785 414.434 456.234 412.832 456.234C411.23 456.234 409.926 455.801 408.918 454.934C407.918 454.066 407.418 452.922 407.418 451.5H409.598C409.598 452.398 409.891 453.117 410.477 453.656C411.062 454.195 411.848 454.465 412.832 454.465C413.879 454.465 414.68 454.191 415.234 453.645C415.789 453.098 416.066 452.312 416.066 451.289C416.066 450.297 415.762 449.535 415.152 449.004C414.543 448.473 413.664 448.199 412.516 448.184H410.887V446.414ZM421.867 457.465H420.004L427.129 438.938H428.98L421.867 457.465ZM434.254 446.414H435.883C436.906 446.398 437.711 446.129 438.297 445.605C438.883 445.082 439.176 444.375 439.176 443.484C439.176 441.484 438.18 440.484 436.188 440.484C435.25 440.484 434.5 440.754 433.938 441.293C433.383 441.824 433.105 442.531 433.105 443.414H430.938C430.938 442.062 431.43 440.941 432.414 440.051C433.406 439.152 434.664 438.703 436.188 438.703C437.797 438.703 439.059 439.129 439.973 439.98C440.887 440.832 441.344 442.016 441.344 443.531C441.344 444.273 441.102 444.992 440.617 445.688C440.141 446.383 439.488 446.902 438.66 447.246C439.598 447.543 440.32 448.035 440.828 448.723C441.344 449.41 441.602 450.25 441.602 451.242C441.602 452.773 441.102 453.988 440.102 454.887C439.102 455.785 437.801 456.234 436.199 456.234C434.598 456.234 433.293 455.801 432.285 454.934C431.285 454.066 430.785 452.922 430.785 451.5H432.965C432.965 452.398 433.258 453.117 433.844 453.656C434.43 454.195 435.215 454.465 436.199 454.465C437.246 454.465 438.047 454.191 438.602 453.645C439.156 453.098 439.434 452.312 439.434 451.289C439.434 450.297 439.129 449.535 438.52 449.004C437.91 448.473 437.031 448.199 435.883 448.184H434.254V446.414ZM444.848 454.863C444.848 454.488 444.957 454.176 445.176 453.926C445.402 453.676 445.738 453.551 446.184 453.551C446.629 453.551 446.965 453.676 447.191 453.926C447.426 454.176 447.543 454.488 447.543 454.863C447.543 455.223 447.426 455.523 447.191 455.766C446.965 456.008 446.629 456.129 446.184 456.129C445.738 456.129 445.402 456.008 445.176 455.766C444.957 455.523 444.848 455.223 444.848 454.863ZM461.84 449.801C461.84 451.73 461.398 453.285 460.516 454.465C459.633 455.645 458.438 456.234 456.93 456.234C455.391 456.234 454.18 455.746 453.297 454.77V460.875H451.129V443.32H453.109L453.215 444.727C454.098 443.633 455.324 443.086 456.895 443.086C458.418 443.086 459.621 443.66 460.504 444.809C461.395 445.957 461.84 447.555 461.84 449.602V449.801ZM459.672 449.555C459.672 448.125 459.367 446.996 458.758 446.168C458.148 445.34 457.312 444.926 456.25 444.926C454.938 444.926 453.953 445.508 453.297 446.672V452.73C453.945 453.887 454.938 454.465 456.273 454.465C457.312 454.465 458.137 454.055 458.746 453.234C459.363 452.406 459.672 451.18 459.672 449.555ZM466.656 443.32L466.727 444.914C467.695 443.695 468.961 443.086 470.523 443.086C473.203 443.086 474.555 444.598 474.578 447.621V456H472.41V447.609C472.402 446.695 472.191 446.02 471.777 445.582C471.371 445.145 470.734 444.926 469.867 444.926C469.164 444.926 468.547 445.113 468.016 445.488C467.484 445.863 467.07 446.355 466.773 446.965V456H464.605V443.32H466.656ZM477.332 449.555C477.332 447.578 477.789 446.008 478.703 444.844C479.617 443.672 480.828 443.086 482.336 443.086C483.883 443.086 485.09 443.633 485.957 444.727L486.062 443.32H488.043V455.695C488.043 457.336 487.555 458.629 486.578 459.574C485.609 460.52 484.305 460.992 482.664 460.992C481.75 460.992 480.855 460.797 479.98 460.406C479.105 460.016 478.438 459.48 477.977 458.801L479.102 457.5C480.031 458.648 481.168 459.223 482.512 459.223C483.566 459.223 484.387 458.926 484.973 458.332C485.566 457.738 485.863 456.902 485.863 455.824V454.734C484.996 455.734 483.812 456.234 482.312 456.234C480.828 456.234 479.625 455.637 478.703 454.441C477.789 453.246 477.332 451.617 477.332 449.555ZM479.512 449.801C479.512 451.23 479.805 452.355 480.391 453.176C480.977 453.988 481.797 454.395 482.852 454.395C484.219 454.395 485.223 453.773 485.863 452.531V446.742C485.199 445.531 484.203 444.926 482.875 444.926C481.82 444.926 480.996 445.336 480.402 446.156C479.809 446.977 479.512 448.191 479.512 449.801Z" fill="black"/>
</svg>
