<svg width="256" height="256" viewBox="0 0 256 256" fill="none" xmlns="http://www.w3.org/2000/svg">
<rect width="256" height="256" fill="white"/>
<rect x="0.5" y="0.5" width="63" height="63" stroke="#9D9D9D"/>
<rect x="0.5" y="64.5" width="63" height="63" stroke="#9D9D9D"/>
<rect x="0.5" y="128.5" width="63" height="63" stroke="#9D9D9D"/>
<rect x="0.5" y="192.5" width="63" height="63" stroke="#9D9D9D"/>
<rect x="64.5" y="0.5" width="63" height="63" stroke="#9D9D9D"/>
<rect x="64.5" y="64.5" width="63" height="63" stroke="#9D9D9D"/>
<rect x="64.5" y="128.5" width="63" height="63" stroke="#9D9D9D"/>
<rect x="64.5" y="192.5" width="63" height="63" stroke="#9D9D9D"/>
<rect x="128.5" y="0.5" width="63" height="63" stroke="#9D9D9D"/>
<rect x="128.5" y="64.5" width="63" height="63" stroke="#9D9D9D"/>
<rect x="128.5" y="128.5" width="63" height="63" stroke="#9D9D9D"/>
<rect x="128.5" y="192.5" width="63" height="63" stroke="#9D9D9D"/>
<rect x="192.5" y="0.5" width="63" height="63" stroke="#9D9D9D"/>
<rect x="192.5" y="64.5" width="63" height="63" stroke="#9D9D9D"/>
<rect x="192.5" y="128.5" width="63" height="63" stroke="#9D9D9D"/>
<rect x="192.5" y="192.5" width="63" height="63" stroke="#9D9D9D"/>
<path d="M17.2168 32.3613C17.2168 33.6309 17 34.5742 16.5664 35.1914C16.1328 35.8086 15.4551 36.1172 14.5332 36.1172C13.623 36.1172 12.9492 35.8164 12.5117 35.2148C12.0742 34.6094 11.8477 33.707 11.832 32.5078V31.0605C11.832 29.8066 12.0488 28.875 12.4824 28.2656C12.916 27.6562 13.5957 27.3516 14.5215 27.3516C15.4395 27.3516 16.1152 27.6465 16.5488 28.2363C16.9824 28.8223 17.2051 29.7285 17.2168 30.9551V32.3613ZM16.1328 30.8789C16.1328 29.9609 16.0039 29.293 15.7461 28.875C15.4883 28.4531 15.0801 28.2422 14.5215 28.2422C13.9668 28.2422 13.5625 28.4512 13.3086 28.8691C13.0547 29.2871 12.9238 29.9297 12.916 30.7969V32.5312C12.916 33.4531 13.0488 34.1348 13.3145 34.5762C13.584 35.0137 13.9902 35.2324 14.5332 35.2324C15.0684 35.2324 15.4648 35.0254 15.7227 34.6113C15.9844 34.1973 16.1211 33.5449 16.1328 32.6543V30.8789ZM18.9336 36.7324H18.002L21.5645 27.4688H22.4902L18.9336 36.7324ZM28.9004 32.3613C28.9004 33.6309 28.6836 34.5742 28.25 35.1914C27.8164 35.8086 27.1387 36.1172 26.2168 36.1172C25.3066 36.1172 24.6328 35.8164 24.1953 35.2148C23.7578 34.6094 23.5312 33.707 23.5156 32.5078V31.0605C23.5156 29.8066 23.7324 28.875 24.166 28.2656C24.5996 27.6562 25.2793 27.3516 26.2051 27.3516C27.123 27.3516 27.7988 27.6465 28.2324 28.2363C28.666 28.8223 28.8887 29.7285 28.9004 30.9551V32.3613ZM27.8164 30.8789C27.8164 29.9609 27.6875 29.293 27.4297 28.875C27.1719 28.4531 26.7637 28.2422 26.2051 28.2422C25.6504 28.2422 25.2461 28.4512 24.9922 28.8691C24.7383 29.2871 24.6074 29.9297 24.5996 30.7969V32.5312C24.5996 33.4531 24.7324 34.1348 24.998 34.5762C25.2676 35.0137 25.6738 35.2324 26.2168 35.2324C26.752 35.2324 27.1484 35.0254 27.4062 34.6113C27.668 34.1973 27.8047 33.5449 27.8164 32.6543V30.8789ZM30.4238 35.4316C30.4238 35.2441 30.4785 35.0879 30.5879 34.9629C30.7012 34.8379 30.8691 34.7754 31.0918 34.7754C31.3145 34.7754 31.4824 34.8379 31.5957 34.9629C31.7129 35.0879 31.7715 35.2441 31.7715 35.4316C31.7715 35.6113 31.7129 35.7617 31.5957 35.8828C31.4824 36.0039 31.3145 36.0645 31.0918 36.0645C30.8691 36.0645 30.7012 36.0039 30.5879 35.8828C30.4785 35.7617 30.4238 35.6113 30.4238 35.4316ZM38.9199 32.9004C38.9199 33.8652 38.6992 34.6426 38.2578 35.2324C37.8164 35.8223 37.2188 36.1172 36.4648 36.1172C35.6953 36.1172 35.0898 35.873 34.6484 35.3848V38.4375H33.5645V29.6602H34.5547L34.6074 30.3633C35.0488 29.8164 35.6621 29.543 36.4473 29.543C37.209 29.543 37.8105 29.8301 38.252 30.4043C38.6973 30.9785 38.9199 31.7773 38.9199 32.8008V32.9004ZM37.8359 32.7773C37.8359 32.0625 37.6836 31.498 37.3789 31.084C37.0742 30.6699 36.6562 30.4629 36.125 30.4629C35.4688 30.4629 34.9766 30.7539 34.6484 31.3359V34.3652C34.9727 34.9434 35.4688 35.2324 36.1367 35.2324C36.6562 35.2324 37.0684 35.0273 37.373 34.6172C37.6816 34.2031 37.8359 33.5898 37.8359 32.7773ZM41.3281 29.6602L41.3633 30.457C41.8477 29.8477 42.4805 29.543 43.2617 29.543C44.6016 29.543 45.2773 30.2988 45.2891 31.8105V36H44.2051V31.8047C44.2012 31.3477 44.0957 31.0098 43.8887 30.791C43.6855 30.5723 43.3672 30.4629 42.9336 30.4629C42.582 30.4629 42.2734 30.5566 42.0078 30.7441C41.7422 30.9316 41.5352 31.1777 41.3867 31.4824V36H40.3027V29.6602H41.3281ZM46.666 32.7773C46.666 31.7891 46.8945 31.0039 47.3516 30.4219C47.8086 29.8359 48.4141 29.543 49.168 29.543C49.9414 29.543 50.5449 29.8164 50.9785 30.3633L51.0312 29.6602H52.0215V35.8477C52.0215 36.668 51.7773 37.3145 51.2891 37.7871C50.8047 38.2598 50.1523 38.4961 49.332 38.4961C48.875 38.4961 48.4277 38.3984 47.9902 38.2031C47.5527 38.0078 47.2188 37.7402 46.9883 37.4004L47.5508 36.75C48.0156 37.3242 48.584 37.6113 49.2559 37.6113C49.7832 37.6113 50.1934 37.4629 50.4863 37.166C50.7832 36.8691 50.9316 36.4512 50.9316 35.9121V35.3672C50.498 35.8672 49.9062 36.1172 49.1562 36.1172C48.4141 36.1172 47.8125 35.8184 47.3516 35.2207C46.8945 34.623 46.666 33.8086 46.666 32.7773ZM47.7559 32.9004C47.7559 33.6152 47.9023 34.1777 48.1953 34.5879C48.4883 34.9941 48.8984 35.1973 49.4258 35.1973C50.1094 35.1973 50.6113 34.8867 50.9316 34.2656V31.3711C50.5996 30.7656 50.1016 30.4629 49.4375 30.4629C48.9102 30.4629 48.498 30.668 48.2012 31.0781C47.9043 31.4883 47.7559 32.0957 47.7559 32.9004Z" fill="black"/>
<path d="M17.2168 96.3613C17.2168 97.6309 17 98.5742 16.5664 99.1914C16.1328 99.8086 15.4551 100.117 14.5332 100.117C13.623 100.117 12.9492 99.8164 12.5117 99.2148C12.0742 98.6094 11.8477 97.707 11.832 96.5078V95.0605C11.832 93.8066 12.0488 92.875 12.4824 92.2656C12.916 91.6562 13.5957 91.3516 14.5215 91.3516C15.4395 91.3516 16.1152 91.6465 16.5488 92.2363C16.9824 92.8223 17.2051 93.7285 17.2168 94.9551V96.3613ZM16.1328 94.8789C16.1328 93.9609 16.0039 93.293 15.7461 92.875C15.4883 92.4531 15.0801 92.2422 14.5215 92.2422C13.9668 92.2422 13.5625 92.4512 13.3086 92.8691C13.0547 93.2871 12.9238 93.9297 12.916 94.7969V96.5312C12.916 97.4531 13.0488 98.1348 13.3145 98.5762C13.584 99.0137 13.9902 99.2324 14.5332 99.2324C15.0684 99.2324 15.4648 99.0254 15.7227 98.6113C15.9844 98.1973 16.1211 97.5449 16.1328 96.6543V94.8789ZM18.9336 100.732H18.002L21.5645 91.4688H22.4902L18.9336 100.732ZM27.1133 100H26.0234V92.7754L23.8379 93.5781V92.5938L26.9434 91.4277H27.1133V100ZM30.4238 99.4316C30.4238 99.2441 30.4785 99.0879 30.5879 98.9629C30.7012 98.8379 30.8691 98.7754 31.0918 98.7754C31.3145 98.7754 31.4824 98.8379 31.5957 98.9629C31.7129 99.0879 31.7715 99.2441 31.7715 99.4316C31.7715 99.6113 31.7129 99.7617 31.5957 99.8828C31.4824 100.004 31.3145 100.064 31.0918 100.064C30.8691 100.064 30.7012 100.004 30.5879 99.8828C30.4785 99.7617 30.4238 99.6113 30.4238 99.4316ZM38.9199 96.9004C38.9199 97.8652 38.6992 98.6426 38.2578 99.2324C37.8164 99.8223 37.2188 100.117 36.4648 100.117C35.6953 100.117 35.0898 99.873 34.6484 99.3848V102.438H33.5645V93.6602H34.5547L34.6074 94.3633C35.0488 93.8164 35.6621 93.543 36.4473 93.543C37.209 93.543 37.8105 93.8301 38.252 94.4043C38.6973 94.9785 38.9199 95.7773 38.9199 96.8008V96.9004ZM37.8359 96.7773C37.8359 96.0625 37.6836 95.498 37.3789 95.084C37.0742 94.6699 36.6562 94.4629 36.125 94.4629C35.4688 94.4629 34.9766 94.7539 34.6484 95.3359V98.3652C34.9727 98.9434 35.4688 99.2324 36.1367 99.2324C36.6562 99.2324 37.0684 99.0273 37.373 98.6172C37.6816 98.2031 37.8359 97.5898 37.8359 96.7773ZM41.3281 93.6602L41.3633 94.457C41.8477 93.8477 42.4805 93.543 43.2617 93.543C44.6016 93.543 45.2773 94.2988 45.2891 95.8105V100H44.2051V95.8047C44.2012 95.3477 44.0957 95.0098 43.8887 94.791C43.6855 94.5723 43.3672 94.4629 42.9336 94.4629C42.582 94.4629 42.2734 94.5566 42.0078 94.7441C41.7422 94.9316 41.5352 95.1777 41.3867 95.4824V100H40.3027V93.6602H41.3281ZM46.666 96.7773C46.666 95.7891 46.8945 95.0039 47.3516 94.4219C47.8086 93.8359 48.4141 93.543 49.168 93.543C49.9414 93.543 50.5449 93.8164 50.9785 94.3633L51.0312 93.6602H52.0215V99.8477C52.0215 100.668 51.7773 101.314 51.2891 101.787C50.8047 102.26 50.1523 102.496 49.332 102.496C48.875 102.496 48.4277 102.398 47.9902 102.203C47.5527 102.008 47.2188 101.74 46.9883 101.4L47.5508 100.75C48.0156 101.324 48.584 101.611 49.2559 101.611C49.7832 101.611 50.1934 101.463 50.4863 101.166C50.7832 100.869 50.9316 100.451 50.9316 99.9121V99.3672C50.498 99.8672 49.9062 100.117 49.1562 100.117C48.4141 100.117 47.8125 99.8184 47.3516 99.2207C46.8945 98.623 46.666 97.8086 46.666 96.7773ZM47.7559 96.9004C47.7559 97.6152 47.9023 98.1777 48.1953 98.5879C48.4883 98.9941 48.8984 99.1973 49.4258 99.1973C50.1094 99.1973 50.6113 98.8867 50.9316 98.2656V95.3711C50.5996 94.7656 50.1016 94.4629 49.4375 94.4629C48.9102 94.4629 48.498 94.668 48.2012 95.0781C47.9043 95.4883 47.7559 96.0957 47.7559 96.9004Z" fill="black"/>
<path d="M17.2168 160.361C17.2168 161.631 17 162.574 16.5664 163.191C16.1328 163.809 15.4551 164.117 14.5332 164.117C13.623 164.117 12.9492 163.816 12.5117 163.215C12.0742 162.609 11.8477 161.707 11.832 160.508V159.061C11.832 157.807 12.0488 156.875 12.4824 156.266C12.916 155.656 13.5957 155.352 14.5215 155.352C15.4395 155.352 16.1152 155.646 16.5488 156.236C16.9824 156.822 17.2051 157.729 17.2168 158.955V160.361ZM16.1328 158.879C16.1328 157.961 16.0039 157.293 15.7461 156.875C15.4883 156.453 15.0801 156.242 14.5215 156.242C13.9668 156.242 13.5625 156.451 13.3086 156.869C13.0547 157.287 12.9238 157.93 12.916 158.797V160.531C12.916 161.453 13.0488 162.135 13.3145 162.576C13.584 163.014 13.9902 163.232 14.5332 163.232C15.0684 163.232 15.4648 163.025 15.7227 162.611C15.9844 162.197 16.1211 161.545 16.1328 160.654V158.879ZM18.9336 164.732H18.002L21.5645 155.469H22.4902L18.9336 164.732ZM29.1406 164H23.5508V163.221L26.5039 159.939C26.9414 159.443 27.2422 159.041 27.4062 158.732C27.5742 158.42 27.6582 158.098 27.6582 157.766C27.6582 157.32 27.5234 156.955 27.2539 156.67C26.9844 156.385 26.625 156.242 26.1758 156.242C25.6367 156.242 25.2168 156.396 24.916 156.705C24.6191 157.01 24.4707 157.436 24.4707 157.982H23.3867C23.3867 157.197 23.6387 156.562 24.1426 156.078C24.6504 155.594 25.3281 155.352 26.1758 155.352C26.9688 155.352 27.5957 155.561 28.0566 155.979C28.5176 156.393 28.748 156.945 28.748 157.637C28.748 158.477 28.2129 159.477 27.1426 160.637L24.8574 163.115H29.1406V164ZM30.4238 163.432C30.4238 163.244 30.4785 163.088 30.5879 162.963C30.7012 162.838 30.8691 162.775 31.0918 162.775C31.3145 162.775 31.4824 162.838 31.5957 162.963C31.7129 163.088 31.7715 163.244 31.7715 163.432C31.7715 163.611 31.7129 163.762 31.5957 163.883C31.4824 164.004 31.3145 164.064 31.0918 164.064C30.8691 164.064 30.7012 164.004 30.5879 163.883C30.4785 163.762 30.4238 163.611 30.4238 163.432ZM38.9199 160.9C38.9199 161.865 38.6992 162.643 38.2578 163.232C37.8164 163.822 37.2188 164.117 36.4648 164.117C35.6953 164.117 35.0898 163.873 34.6484 163.385V166.438H33.5645V157.66H34.5547L34.6074 158.363C35.0488 157.816 35.6621 157.543 36.4473 157.543C37.209 157.543 37.8105 157.83 38.252 158.404C38.6973 158.979 38.9199 159.777 38.9199 160.801V160.9ZM37.8359 160.777C37.8359 160.062 37.6836 159.498 37.3789 159.084C37.0742 158.67 36.6562 158.463 36.125 158.463C35.4688 158.463 34.9766 158.754 34.6484 159.336V162.365C34.9727 162.943 35.4688 163.232 36.1367 163.232C36.6562 163.232 37.0684 163.027 37.373 162.617C37.6816 162.203 37.8359 161.59 37.8359 160.777ZM41.3281 157.66L41.3633 158.457C41.8477 157.848 42.4805 157.543 43.2617 157.543C44.6016 157.543 45.2773 158.299 45.2891 159.811V164H44.2051V159.805C44.2012 159.348 44.0957 159.01 43.8887 158.791C43.6855 158.572 43.3672 158.463 42.9336 158.463C42.582 158.463 42.2734 158.557 42.0078 158.744C41.7422 158.932 41.5352 159.178 41.3867 159.482V164H40.3027V157.66H41.3281ZM46.666 160.777C46.666 159.789 46.8945 159.004 47.3516 158.422C47.8086 157.836 48.4141 157.543 49.168 157.543C49.9414 157.543 50.5449 157.816 50.9785 158.363L51.0312 157.66H52.0215V163.848C52.0215 164.668 51.7773 165.314 51.2891 165.787C50.8047 166.26 50.1523 166.496 49.332 166.496C48.875 166.496 48.4277 166.398 47.9902 166.203C47.5527 166.008 47.2188 165.74 46.9883 165.4L47.5508 164.75C48.0156 165.324 48.584 165.611 49.2559 165.611C49.7832 165.611 50.1934 165.463 50.4863 165.166C50.7832 164.869 50.9316 164.451 50.9316 163.912V163.367C50.498 163.867 49.9062 164.117 49.1562 164.117C48.4141 164.117 47.8125 163.818 47.3516 163.221C46.8945 162.623 46.666 161.809 46.666 160.777ZM47.7559 160.9C47.7559 161.615 47.9023 162.178 48.1953 162.588C48.4883 162.994 48.8984 163.197 49.4258 163.197C50.1094 163.197 50.6113 162.887 50.9316 162.266V159.371C50.5996 158.766 50.1016 158.463 49.4375 158.463C48.9102 158.463 48.498 158.668 48.2012 159.078C47.9043 159.488 47.7559 160.096 47.7559 160.9Z" fill="black"/>
<path d="M17.2168 224.361C17.2168 225.631 17 226.574 16.5664 227.191C16.1328 227.809 15.4551 228.117 14.5332 228.117C13.623 228.117 12.9492 227.816 12.5117 227.215C12.0742 226.609 11.8477 225.707 11.832 224.508V223.061C11.832 221.807 12.0488 220.875 12.4824 220.266C12.916 219.656 13.5957 219.352 14.5215 219.352C15.4395 219.352 16.1152 219.646 16.5488 220.236C16.9824 220.822 17.2051 221.729 17.2168 222.955V224.361ZM16.1328 222.879C16.1328 221.961 16.0039 221.293 15.7461 220.875C15.4883 220.453 15.0801 220.242 14.5215 220.242C13.9668 220.242 13.5625 220.451 13.3086 220.869C13.0547 221.287 12.9238 221.93 12.916 222.797V224.531C12.916 225.453 13.0488 226.135 13.3145 226.576C13.584 227.014 13.9902 227.232 14.5332 227.232C15.0684 227.232 15.4648 227.025 15.7227 226.611C15.9844 226.197 16.1211 225.545 16.1328 224.654V222.879ZM18.9336 228.732H18.002L21.5645 219.469H22.4902L18.9336 228.732ZM25.127 223.207H25.9414C26.4531 223.199 26.8555 223.064 27.1484 222.803C27.4414 222.541 27.5879 222.188 27.5879 221.742C27.5879 220.742 27.0898 220.242 26.0938 220.242C25.625 220.242 25.25 220.377 24.9688 220.646C24.6914 220.912 24.5527 221.266 24.5527 221.707H23.4688C23.4688 221.031 23.7148 220.471 24.207 220.025C24.7031 219.576 25.332 219.352 26.0938 219.352C26.8984 219.352 27.5293 219.564 27.9863 219.99C28.4434 220.416 28.6719 221.008 28.6719 221.766C28.6719 222.137 28.5508 222.496 28.3086 222.844C28.0703 223.191 27.7441 223.451 27.3301 223.623C27.7988 223.771 28.1602 224.018 28.4141 224.361C28.6719 224.705 28.8008 225.125 28.8008 225.621C28.8008 226.387 28.5508 226.994 28.0508 227.443C27.5508 227.893 26.9004 228.117 26.0996 228.117C25.2988 228.117 24.6465 227.9 24.1426 227.467C23.6426 227.033 23.3926 226.461 23.3926 225.75H24.4824C24.4824 226.199 24.6289 226.559 24.9219 226.828C25.2148 227.098 25.6074 227.232 26.0996 227.232C26.623 227.232 27.0234 227.096 27.3008 226.822C27.5781 226.549 27.7168 226.156 27.7168 225.645C27.7168 225.148 27.5645 224.768 27.2598 224.502C26.9551 224.236 26.5156 224.1 25.9414 224.092H25.127V223.207ZM30.4238 227.432C30.4238 227.244 30.4785 227.088 30.5879 226.963C30.7012 226.838 30.8691 226.775 31.0918 226.775C31.3145 226.775 31.4824 226.838 31.5957 226.963C31.7129 227.088 31.7715 227.244 31.7715 227.432C31.7715 227.611 31.7129 227.762 31.5957 227.883C31.4824 228.004 31.3145 228.064 31.0918 228.064C30.8691 228.064 30.7012 228.004 30.5879 227.883C30.4785 227.762 30.4238 227.611 30.4238 227.432ZM38.9199 224.9C38.9199 225.865 38.6992 226.643 38.2578 227.232C37.8164 227.822 37.2188 228.117 36.4648 228.117C35.6953 228.117 35.0898 227.873 34.6484 227.385V230.438H33.5645V221.66H34.5547L34.6074 222.363C35.0488 221.816 35.6621 221.543 36.4473 221.543C37.209 221.543 37.8105 221.83 38.252 222.404C38.6973 222.979 38.9199 223.777 38.9199 224.801V224.9ZM37.8359 224.777C37.8359 224.062 37.6836 223.498 37.3789 223.084C37.0742 222.67 36.6562 222.463 36.125 222.463C35.4688 222.463 34.9766 222.754 34.6484 223.336V226.365C34.9727 226.943 35.4688 227.232 36.1367 227.232C36.6562 227.232 37.0684 227.027 37.373 226.617C37.6816 226.203 37.8359 225.59 37.8359 224.777ZM41.3281 221.66L41.3633 222.457C41.8477 221.848 42.4805 221.543 43.2617 221.543C44.6016 221.543 45.2773 222.299 45.2891 223.811V228H44.2051V223.805C44.2012 223.348 44.0957 223.01 43.8887 222.791C43.6855 222.572 43.3672 222.463 42.9336 222.463C42.582 222.463 42.2734 222.557 42.0078 222.744C41.7422 222.932 41.5352 223.178 41.3867 223.482V228H40.3027V221.66H41.3281ZM46.666 224.777C46.666 223.789 46.8945 223.004 47.3516 222.422C47.8086 221.836 48.4141 221.543 49.168 221.543C49.9414 221.543 50.5449 221.816 50.9785 222.363L51.0312 221.66H52.0215V227.848C52.0215 228.668 51.7773 229.314 51.2891 229.787C50.8047 230.26 50.1523 230.496 49.332 230.496C48.875 230.496 48.4277 230.398 47.9902 230.203C47.5527 230.008 47.2188 229.74 46.9883 229.4L47.5508 228.75C48.0156 229.324 48.584 229.611 49.2559 229.611C49.7832 229.611 50.1934 229.463 50.4863 229.166C50.7832 228.869 50.9316 228.451 50.9316 227.912V227.367C50.498 227.867 49.9062 228.117 49.1562 228.117C48.4141 228.117 47.8125 227.818 47.3516 227.221C46.8945 226.623 46.666 225.809 46.666 224.777ZM47.7559 224.9C47.7559 225.615 47.9023 226.178 48.1953 226.588C48.4883 226.994 48.8984 227.197 49.4258 227.197C50.1094 227.197 50.6113 226.887 50.9316 226.266V223.371C50.5996 222.766 50.1016 222.463 49.4375 222.463C48.9102 222.463 48.498 222.668 48.2012 223.078C47.9043 223.488 47.7559 224.096 47.7559 224.9Z" fill="black"/>
<path d="M79.4297 36H78.3398V28.7754L76.1543 29.5781V28.5938L79.2598 27.4277H79.4297V36ZM82.9336 36.7324H82.002L85.5645 27.4688H86.4902L82.9336 36.7324ZM92.9004 32.3613C92.9004 33.6309 92.6836 34.5742 92.25 35.1914C91.8164 35.8086 91.1387 36.1172 90.2168 36.1172C89.3066 36.1172 88.6328 35.8164 88.1953 35.2148C87.7578 34.6094 87.5312 33.707 87.5156 32.5078V31.0605C87.5156 29.8066 87.7324 28.875 88.166 28.2656C88.5996 27.6562 89.2793 27.3516 90.2051 27.3516C91.123 27.3516 91.7988 27.6465 92.2324 28.2363C92.666 28.8223 92.8887 29.7285 92.9004 30.9551V32.3613ZM91.8164 30.8789C91.8164 29.9609 91.6875 29.293 91.4297 28.875C91.1719 28.4531 90.7637 28.2422 90.2051 28.2422C89.6504 28.2422 89.2461 28.4512 88.9922 28.8691C88.7383 29.2871 88.6074 29.9297 88.5996 30.7969V32.5312C88.5996 33.4531 88.7324 34.1348 88.998 34.5762C89.2676 35.0137 89.6738 35.2324 90.2168 35.2324C90.752 35.2324 91.1484 35.0254 91.4062 34.6113C91.668 34.1973 91.8047 33.5449 91.8164 32.6543V30.8789ZM94.4238 35.4316C94.4238 35.2441 94.4785 35.0879 94.5879 34.9629C94.7012 34.8379 94.8691 34.7754 95.0918 34.7754C95.3145 34.7754 95.4824 34.8379 95.5957 34.9629C95.7129 35.0879 95.7715 35.2441 95.7715 35.4316C95.7715 35.6113 95.7129 35.7617 95.5957 35.8828C95.4824 36.0039 95.3145 36.0645 95.0918 36.0645C94.8691 36.0645 94.7012 36.0039 94.5879 35.8828C94.4785 35.7617 94.4238 35.6113 94.4238 35.4316ZM102.92 32.9004C102.92 33.8652 102.699 34.6426 102.258 35.2324C101.816 35.8223 101.219 36.1172 100.465 36.1172C99.6953 36.1172 99.0898 35.873 98.6484 35.3848V38.4375H97.5645V29.6602H98.5547L98.6074 30.3633C99.0488 29.8164 99.6621 29.543 100.447 29.543C101.209 29.543 101.811 29.8301 102.252 30.4043C102.697 30.9785 102.92 31.7773 102.92 32.8008V32.9004ZM101.836 32.7773C101.836 32.0625 101.684 31.498 101.379 31.084C101.074 30.6699 100.656 30.4629 100.125 30.4629C99.4688 30.4629 98.9766 30.7539 98.6484 31.3359V34.3652C98.9727 34.9434 99.4688 35.2324 100.137 35.2324C100.656 35.2324 101.068 35.0273 101.373 34.6172C101.682 34.2031 101.836 33.5898 101.836 32.7773ZM105.328 29.6602L105.363 30.457C105.848 29.8477 106.48 29.543 107.262 29.543C108.602 29.543 109.277 30.2988 109.289 31.8105V36H108.205V31.8047C108.201 31.3477 108.096 31.0098 107.889 30.791C107.686 30.5723 107.367 30.4629 106.934 30.4629C106.582 30.4629 106.273 30.5566 106.008 30.7441C105.742 30.9316 105.535 31.1777 105.387 31.4824V36H104.303V29.6602H105.328ZM110.666 32.7773C110.666 31.7891 110.895 31.0039 111.352 30.4219C111.809 29.8359 112.414 29.543 113.168 29.543C113.941 29.543 114.545 29.8164 114.979 30.3633L115.031 29.6602H116.021V35.8477C116.021 36.668 115.777 37.3145 115.289 37.7871C114.805 38.2598 114.152 38.4961 113.332 38.4961C112.875 38.4961 112.428 38.3984 111.99 38.2031C111.553 38.0078 111.219 37.7402 110.988 37.4004L111.551 36.75C112.016 37.3242 112.584 37.6113 113.256 37.6113C113.783 37.6113 114.193 37.4629 114.486 37.166C114.783 36.8691 114.932 36.4512 114.932 35.9121V35.3672C114.498 35.8672 113.906 36.1172 113.156 36.1172C112.414 36.1172 111.812 35.8184 111.352 35.2207C110.895 34.623 110.666 33.8086 110.666 32.7773ZM111.756 32.9004C111.756 33.6152 111.902 34.1777 112.195 34.5879C112.488 34.9941 112.898 35.1973 113.426 35.1973C114.109 35.1973 114.611 34.8867 114.932 34.2656V31.3711C114.6 30.7656 114.102 30.4629 113.438 30.4629C112.91 30.4629 112.498 30.668 112.201 31.0781C111.904 31.4883 111.756 32.0957 111.756 32.9004Z" fill="black"/>
<path d="M79.4297 100H78.3398V92.7754L76.1543 93.5781V92.5938L79.2598 91.4277H79.4297V100ZM82.9336 100.732H82.002L85.5645 91.4688H86.4902L82.9336 100.732ZM91.1133 100H90.0234V92.7754L87.8379 93.5781V92.5938L90.9434 91.4277H91.1133V100ZM94.4238 99.4316C94.4238 99.2441 94.4785 99.0879 94.5879 98.9629C94.7012 98.8379 94.8691 98.7754 95.0918 98.7754C95.3145 98.7754 95.4824 98.8379 95.5957 98.9629C95.7129 99.0879 95.7715 99.2441 95.7715 99.4316C95.7715 99.6113 95.7129 99.7617 95.5957 99.8828C95.4824 100.004 95.3145 100.064 95.0918 100.064C94.8691 100.064 94.7012 100.004 94.5879 99.8828C94.4785 99.7617 94.4238 99.6113 94.4238 99.4316ZM102.92 96.9004C102.92 97.8652 102.699 98.6426 102.258 99.2324C101.816 99.8223 101.219 100.117 100.465 100.117C99.6953 100.117 99.0898 99.873 98.6484 99.3848V102.438H97.5645V93.6602H98.5547L98.6074 94.3633C99.0488 93.8164 99.6621 93.543 100.447 93.543C101.209 93.543 101.811 93.8301 102.252 94.4043C102.697 94.9785 102.92 95.7773 102.92 96.8008V96.9004ZM101.836 96.7773C101.836 96.0625 101.684 95.498 101.379 95.084C101.074 94.6699 100.656 94.4629 100.125 94.4629C99.4688 94.4629 98.9766 94.7539 98.6484 95.3359V98.3652C98.9727 98.9434 99.4688 99.2324 100.137 99.2324C100.656 99.2324 101.068 99.0273 101.373 98.6172C101.682 98.2031 101.836 97.5898 101.836 96.7773ZM105.328 93.6602L105.363 94.457C105.848 93.8477 106.48 93.543 107.262 93.543C108.602 93.543 109.277 94.2988 109.289 95.8105V100H108.205V95.8047C108.201 95.3477 108.096 95.0098 107.889 94.791C107.686 94.5723 107.367 94.4629 106.934 94.4629C106.582 94.4629 106.273 94.5566 106.008 94.7441C105.742 94.9316 105.535 95.1777 105.387 95.4824V100H104.303V93.6602H105.328ZM110.666 96.7773C110.666 95.7891 110.895 95.0039 111.352 94.4219C111.809 93.8359 112.414 93.543 113.168 93.543C113.941 93.543 114.545 93.8164 114.979 94.3633L115.031 93.6602H116.021V99.8477C116.021 100.668 115.777 101.314 115.289 101.787C114.805 102.26 114.152 102.496 113.332 102.496C112.875 102.496 112.428 102.398 111.99 102.203C111.553 102.008 111.219 101.74 110.988 101.4L111.551 100.75C112.016 101.324 112.584 101.611 113.256 101.611C113.783 101.611 114.193 101.463 114.486 101.166C114.783 100.869 114.932 100.451 114.932 99.9121V99.3672C114.498 99.8672 113.906 100.117 113.156 100.117C112.414 100.117 111.812 99.8184 111.352 99.2207C110.895 98.623 110.666 97.8086 110.666 96.7773ZM111.756 96.9004C111.756 97.6152 111.902 98.1777 112.195 98.5879C112.488 98.9941 112.898 99.1973 113.426 99.1973C114.109 99.1973 114.611 98.8867 114.932 98.2656V95.3711C114.6 94.7656 114.102 94.4629 113.438 94.4629C112.91 94.4629 112.498 94.668 112.201 95.0781C111.904 95.4883 111.756 96.0957 111.756 96.9004Z" fill="black"/>
<path d="M79.4297 164H78.3398V156.775L76.1543 157.578V156.594L79.2598 155.428H79.4297V164ZM82.9336 164.732H82.002L85.5645 155.469H86.4902L82.9336 164.732ZM93.1406 164H87.5508V163.221L90.5039 159.939C90.9414 159.443 91.2422 159.041 91.4062 158.732C91.5742 158.42 91.6582 158.098 91.6582 157.766C91.6582 157.32 91.5234 156.955 91.2539 156.67C90.9844 156.385 90.625 156.242 90.1758 156.242C89.6367 156.242 89.2168 156.396 88.916 156.705C88.6191 157.01 88.4707 157.436 88.4707 157.982H87.3867C87.3867 157.197 87.6387 156.562 88.1426 156.078C88.6504 155.594 89.3281 155.352 90.1758 155.352C90.9688 155.352 91.5957 155.561 92.0566 155.979C92.5176 156.393 92.748 156.945 92.748 157.637C92.748 158.477 92.2129 159.477 91.1426 160.637L88.8574 163.115H93.1406V164ZM94.4238 163.432C94.4238 163.244 94.4785 163.088 94.5879 162.963C94.7012 162.838 94.8691 162.775 95.0918 162.775C95.3145 162.775 95.4824 162.838 95.5957 162.963C95.7129 163.088 95.7715 163.244 95.7715 163.432C95.7715 163.611 95.7129 163.762 95.5957 163.883C95.4824 164.004 95.3145 164.064 95.0918 164.064C94.8691 164.064 94.7012 164.004 94.5879 163.883C94.4785 163.762 94.4238 163.611 94.4238 163.432ZM102.92 160.9C102.92 161.865 102.699 162.643 102.258 163.232C101.816 163.822 101.219 164.117 100.465 164.117C99.6953 164.117 99.0898 163.873 98.6484 163.385V166.438H97.5645V157.66H98.5547L98.6074 158.363C99.0488 157.816 99.6621 157.543 100.447 157.543C101.209 157.543 101.811 157.83 102.252 158.404C102.697 158.979 102.92 159.777 102.92 160.801V160.9ZM101.836 160.777C101.836 160.062 101.684 159.498 101.379 159.084C101.074 158.67 100.656 158.463 100.125 158.463C99.4688 158.463 98.9766 158.754 98.6484 159.336V162.365C98.9727 162.943 99.4688 163.232 100.137 163.232C100.656 163.232 101.068 163.027 101.373 162.617C101.682 162.203 101.836 161.59 101.836 160.777ZM105.328 157.66L105.363 158.457C105.848 157.848 106.48 157.543 107.262 157.543C108.602 157.543 109.277 158.299 109.289 159.811V164H108.205V159.805C108.201 159.348 108.096 159.01 107.889 158.791C107.686 158.572 107.367 158.463 106.934 158.463C106.582 158.463 106.273 158.557 106.008 158.744C105.742 158.932 105.535 159.178 105.387 159.482V164H104.303V157.66H105.328ZM110.666 160.777C110.666 159.789 110.895 159.004 111.352 158.422C111.809 157.836 112.414 157.543 113.168 157.543C113.941 157.543 114.545 157.816 114.979 158.363L115.031 157.66H116.021V163.848C116.021 164.668 115.777 165.314 115.289 165.787C114.805 166.26 114.152 166.496 113.332 166.496C112.875 166.496 112.428 166.398 111.99 166.203C111.553 166.008 111.219 165.74 110.988 165.4L111.551 164.75C112.016 165.324 112.584 165.611 113.256 165.611C113.783 165.611 114.193 165.463 114.486 165.166C114.783 164.869 114.932 164.451 114.932 163.912V163.367C114.498 163.867 113.906 164.117 113.156 164.117C112.414 164.117 111.812 163.818 111.352 163.221C110.895 162.623 110.666 161.809 110.666 160.777ZM111.756 160.9C111.756 161.615 111.902 162.178 112.195 162.588C112.488 162.994 112.898 163.197 113.426 163.197C114.109 163.197 114.611 162.887 114.932 162.266V159.371C114.6 158.766 114.102 158.463 113.438 158.463C112.91 158.463 112.498 158.668 112.201 159.078C111.904 159.488 111.756 160.096 111.756 160.9Z" fill="black"/>
<path d="M79.4297 228H78.3398V220.775L76.1543 221.578V220.594L79.2598 219.428H79.4297V228ZM82.9336 228.732H82.002L85.5645 219.469H86.4902L82.9336 228.732ZM89.127 223.207H89.9414C90.4531 223.199 90.8555 223.064 91.1484 222.803C91.4414 222.541 91.5879 222.188 91.5879 221.742C91.5879 220.742 91.0898 220.242 90.0938 220.242C89.625 220.242 89.25 220.377 88.9688 220.646C88.6914 220.912 88.5527 221.266 88.5527 221.707H87.4688C87.4688 221.031 87.7148 220.471 88.207 220.025C88.7031 219.576 89.332 219.352 90.0938 219.352C90.8984 219.352 91.5293 219.564 91.9863 219.99C92.4434 220.416 92.6719 221.008 92.6719 221.766C92.6719 222.137 92.5508 222.496 92.3086 222.844C92.0703 223.191 91.7441 223.451 91.3301 223.623C91.7988 223.771 92.1602 224.018 92.4141 224.361C92.6719 224.705 92.8008 225.125 92.8008 225.621C92.8008 226.387 92.5508 226.994 92.0508 227.443C91.5508 227.893 90.9004 228.117 90.0996 228.117C89.2988 228.117 88.6465 227.9 88.1426 227.467C87.6426 227.033 87.3926 226.461 87.3926 225.75H88.4824C88.4824 226.199 88.6289 226.559 88.9219 226.828C89.2148 227.098 89.6074 227.232 90.0996 227.232C90.623 227.232 91.0234 227.096 91.3008 226.822C91.5781 226.549 91.7168 226.156 91.7168 225.645C91.7168 225.148 91.5645 224.768 91.2598 224.502C90.9551 224.236 90.5156 224.1 89.9414 224.092H89.127V223.207ZM94.4238 227.432C94.4238 227.244 94.4785 227.088 94.5879 226.963C94.7012 226.838 94.8691 226.775 95.0918 226.775C95.3145 226.775 95.4824 226.838 95.5957 226.963C95.7129 227.088 95.7715 227.244 95.7715 227.432C95.7715 227.611 95.7129 227.762 95.5957 227.883C95.4824 228.004 95.3145 228.064 95.0918 228.064C94.8691 228.064 94.7012 228.004 94.5879 227.883C94.4785 227.762 94.4238 227.611 94.4238 227.432ZM102.92 224.9C102.92 225.865 102.699 226.643 102.258 227.232C101.816 227.822 101.219 228.117 100.465 228.117C99.6953 228.117 99.0898 227.873 98.6484 227.385V230.438H97.5645V221.66H98.5547L98.6074 222.363C99.0488 221.816 99.6621 221.543 100.447 221.543C101.209 221.543 101.811 221.83 102.252 222.404C102.697 222.979 102.92 223.777 102.92 224.801V224.9ZM101.836 224.777C101.836 224.062 101.684 223.498 101.379 223.084C101.074 222.67 100.656 222.463 100.125 222.463C99.4688 222.463 98.9766 222.754 98.6484 223.336V226.365C98.9727 226.943 99.4688 227.232 100.137 227.232C100.656 227.232 101.068 227.027 101.373 226.617C101.682 226.203 101.836 225.59 101.836 224.777ZM105.328 221.66L105.363 222.457C105.848 221.848 106.48 221.543 107.262 221.543C108.602 221.543 109.277 222.299 109.289 223.811V228H108.205V223.805C108.201 223.348 108.096 223.01 107.889 222.791C107.686 222.572 107.367 222.463 106.934 222.463C106.582 222.463 106.273 222.557 106.008 222.744C105.742 222.932 105.535 223.178 105.387 223.482V228H104.303V221.66H105.328ZM110.666 224.777C110.666 223.789 110.895 223.004 111.352 222.422C111.809 221.836 112.414 221.543 113.168 221.543C113.941 221.543 114.545 221.816 114.979 222.363L115.031 221.66H116.021V227.848C116.021 228.668 115.777 229.314 115.289 229.787C114.805 230.26 114.152 230.496 113.332 230.496C112.875 230.496 112.428 230.398 111.99 230.203C111.553 230.008 111.219 229.74 110.988 229.4L111.551 228.75C112.016 229.324 112.584 229.611 113.256 229.611C113.783 229.611 114.193 229.463 114.486 229.166C114.783 228.869 114.932 228.451 114.932 227.912V227.367C114.498 227.867 113.906 228.117 113.156 228.117C112.414 228.117 111.812 227.818 111.352 227.221C110.895 226.623 110.666 225.809 110.666 224.777ZM111.756 224.9C111.756 225.615 111.902 226.178 112.195 226.588C112.488 226.994 112.898 227.197 113.426 227.197C114.109 227.197 114.611 226.887 114.932 226.266V223.371C114.6 222.766 114.102 222.463 113.438 222.463C112.91 222.463 112.498 222.668 112.201 223.078C111.904 223.488 111.756 224.096 111.756 224.9Z" fill="black"/>
<path d="M145.457 36H139.867V35.2207L142.82 31.9395C143.258 31.4434 143.559 31.041 143.723 30.7324C143.891 30.4199 143.975 30.0977 143.975 29.7656C143.975 29.3203 143.84 28.9551 143.57 28.6699C143.301 28.3848 142.941 28.2422 142.492 28.2422C141.953 28.2422 141.533 28.3965 141.232 28.7051C140.936 29.0098 140.787 29.4355 140.787 29.9824H139.703C139.703 29.1973 139.955 28.5625 140.459 28.0781C140.967 27.5938 141.645 27.3516 142.492 27.3516C143.285 27.3516 143.912 27.5605 144.373 27.9785C144.834 28.3926 145.064 28.9453 145.064 29.6367C145.064 30.4766 144.529 31.4766 143.459 32.6367L141.174 35.1152H145.457V36ZM146.934 36.7324H146.002L149.564 27.4688H150.49L146.934 36.7324ZM156.9 32.3613C156.9 33.6309 156.684 34.5742 156.25 35.1914C155.816 35.8086 155.139 36.1172 154.217 36.1172C153.307 36.1172 152.633 35.8164 152.195 35.2148C151.758 34.6094 151.531 33.707 151.516 32.5078V31.0605C151.516 29.8066 151.732 28.875 152.166 28.2656C152.6 27.6562 153.279 27.3516 154.205 27.3516C155.123 27.3516 155.799 27.6465 156.232 28.2363C156.666 28.8223 156.889 29.7285 156.9 30.9551V32.3613ZM155.816 30.8789C155.816 29.9609 155.688 29.293 155.43 28.875C155.172 28.4531 154.764 28.2422 154.205 28.2422C153.65 28.2422 153.246 28.4512 152.992 28.8691C152.738 29.2871 152.607 29.9297 152.6 30.7969V32.5312C152.6 33.4531 152.732 34.1348 152.998 34.5762C153.268 35.0137 153.674 35.2324 154.217 35.2324C154.752 35.2324 155.148 35.0254 155.406 34.6113C155.668 34.1973 155.805 33.5449 155.816 32.6543V30.8789ZM158.424 35.4316C158.424 35.2441 158.479 35.0879 158.588 34.9629C158.701 34.8379 158.869 34.7754 159.092 34.7754C159.314 34.7754 159.482 34.8379 159.596 34.9629C159.713 35.0879 159.771 35.2441 159.771 35.4316C159.771 35.6113 159.713 35.7617 159.596 35.8828C159.482 36.0039 159.314 36.0645 159.092 36.0645C158.869 36.0645 158.701 36.0039 158.588 35.8828C158.479 35.7617 158.424 35.6113 158.424 35.4316ZM166.92 32.9004C166.92 33.8652 166.699 34.6426 166.258 35.2324C165.816 35.8223 165.219 36.1172 164.465 36.1172C163.695 36.1172 163.09 35.873 162.648 35.3848V38.4375H161.564V29.6602H162.555L162.607 30.3633C163.049 29.8164 163.662 29.543 164.447 29.543C165.209 29.543 165.811 29.8301 166.252 30.4043C166.697 30.9785 166.92 31.7773 166.92 32.8008V32.9004ZM165.836 32.7773C165.836 32.0625 165.684 31.498 165.379 31.084C165.074 30.6699 164.656 30.4629 164.125 30.4629C163.469 30.4629 162.977 30.7539 162.648 31.3359V34.3652C162.973 34.9434 163.469 35.2324 164.137 35.2324C164.656 35.2324 165.068 35.0273 165.373 34.6172C165.682 34.2031 165.836 33.5898 165.836 32.7773ZM169.328 29.6602L169.363 30.457C169.848 29.8477 170.48 29.543 171.262 29.543C172.602 29.543 173.277 30.2988 173.289 31.8105V36H172.205V31.8047C172.201 31.3477 172.096 31.0098 171.889 30.791C171.686 30.5723 171.367 30.4629 170.934 30.4629C170.582 30.4629 170.273 30.5566 170.008 30.7441C169.742 30.9316 169.535 31.1777 169.387 31.4824V36H168.303V29.6602H169.328ZM174.666 32.7773C174.666 31.7891 174.895 31.0039 175.352 30.4219C175.809 29.8359 176.414 29.543 177.168 29.543C177.941 29.543 178.545 29.8164 178.979 30.3633L179.031 29.6602H180.021V35.8477C180.021 36.668 179.777 37.3145 179.289 37.7871C178.805 38.2598 178.152 38.4961 177.332 38.4961C176.875 38.4961 176.428 38.3984 175.99 38.2031C175.553 38.0078 175.219 37.7402 174.988 37.4004L175.551 36.75C176.016 37.3242 176.584 37.6113 177.256 37.6113C177.783 37.6113 178.193 37.4629 178.486 37.166C178.783 36.8691 178.932 36.4512 178.932 35.9121V35.3672C178.498 35.8672 177.906 36.1172 177.156 36.1172C176.414 36.1172 175.812 35.8184 175.352 35.2207C174.895 34.623 174.666 33.8086 174.666 32.7773ZM175.756 32.9004C175.756 33.6152 175.902 34.1777 176.195 34.5879C176.488 34.9941 176.898 35.1973 177.426 35.1973C178.109 35.1973 178.611 34.8867 178.932 34.2656V31.3711C178.6 30.7656 178.102 30.4629 177.438 30.4629C176.91 30.4629 176.498 30.668 176.201 31.0781C175.904 31.4883 175.756 32.0957 175.756 32.9004Z" fill="black"/>
<path d="M145.457 100H139.867V99.2207L142.82 95.9395C143.258 95.4434 143.559 95.041 143.723 94.7324C143.891 94.4199 143.975 94.0977 143.975 93.7656C143.975 93.3203 143.84 92.9551 143.57 92.6699C143.301 92.3848 142.941 92.2422 142.492 92.2422C141.953 92.2422 141.533 92.3965 141.232 92.7051C140.936 93.0098 140.787 93.4355 140.787 93.9824H139.703C139.703 93.1973 139.955 92.5625 140.459 92.0781C140.967 91.5938 141.645 91.3516 142.492 91.3516C143.285 91.3516 143.912 91.5605 144.373 91.9785C144.834 92.3926 145.064 92.9453 145.064 93.6367C145.064 94.4766 144.529 95.4766 143.459 96.6367L141.174 99.1152H145.457V100ZM146.934 100.732H146.002L149.564 91.4688H150.49L146.934 100.732ZM155.113 100H154.023V92.7754L151.838 93.5781V92.5938L154.943 91.4277H155.113V100ZM158.424 99.4316C158.424 99.2441 158.479 99.0879 158.588 98.9629C158.701 98.8379 158.869 98.7754 159.092 98.7754C159.314 98.7754 159.482 98.8379 159.596 98.9629C159.713 99.0879 159.771 99.2441 159.771 99.4316C159.771 99.6113 159.713 99.7617 159.596 99.8828C159.482 100.004 159.314 100.064 159.092 100.064C158.869 100.064 158.701 100.004 158.588 99.8828C158.479 99.7617 158.424 99.6113 158.424 99.4316ZM166.92 96.9004C166.92 97.8652 166.699 98.6426 166.258 99.2324C165.816 99.8223 165.219 100.117 164.465 100.117C163.695 100.117 163.09 99.873 162.648 99.3848V102.438H161.564V93.6602H162.555L162.607 94.3633C163.049 93.8164 163.662 93.543 164.447 93.543C165.209 93.543 165.811 93.8301 166.252 94.4043C166.697 94.9785 166.92 95.7773 166.92 96.8008V96.9004ZM165.836 96.7773C165.836 96.0625 165.684 95.498 165.379 95.084C165.074 94.6699 164.656 94.4629 164.125 94.4629C163.469 94.4629 162.977 94.7539 162.648 95.3359V98.3652C162.973 98.9434 163.469 99.2324 164.137 99.2324C164.656 99.2324 165.068 99.0273 165.373 98.6172C165.682 98.2031 165.836 97.5898 165.836 96.7773ZM169.328 93.6602L169.363 94.457C169.848 93.8477 170.48 93.543 171.262 93.543C172.602 93.543 173.277 94.2988 173.289 95.8105V100H172.205V95.8047C172.201 95.3477 172.096 95.0098 171.889 94.791C171.686 94.5723 171.367 94.4629 170.934 94.4629C170.582 94.4629 170.273 94.5566 170.008 94.7441C169.742 94.9316 169.535 95.1777 169.387 95.4824V100H168.303V93.6602H169.328ZM174.666 96.7773C174.666 95.7891 174.895 95.0039 175.352 94.4219C175.809 93.8359 176.414 93.543 177.168 93.543C177.941 93.543 178.545 93.8164 178.979 94.3633L179.031 93.6602H180.021V99.8477C180.021 100.668 179.777 101.314 179.289 101.787C178.805 102.26 178.152 102.496 177.332 102.496C176.875 102.496 176.428 102.398 175.99 102.203C175.553 102.008 175.219 101.74 174.988 101.4L175.551 100.75C176.016 101.324 176.584 101.611 177.256 101.611C177.783 101.611 178.193 101.463 178.486 101.166C178.783 100.869 178.932 100.451 178.932 99.9121V99.3672C178.498 99.8672 177.906 100.117 177.156 100.117C176.414 100.117 175.812 99.8184 175.352 99.2207C174.895 98.623 174.666 97.8086 174.666 96.7773ZM175.756 96.9004C175.756 97.6152 175.902 98.1777 176.195 98.5879C176.488 98.9941 176.898 99.1973 177.426 99.1973C178.109 99.1973 178.611 98.8867 178.932 98.2656V95.3711C178.6 94.7656 178.102 94.4629 177.438 94.4629C176.91 94.4629 176.498 94.668 176.201 95.0781C175.904 95.4883 175.756 96.0957 175.756 96.9004Z" fill="black"/>
<path d="M145.457 164H139.867V163.221L142.82 159.939C143.258 159.443 143.559 159.041 143.723 158.732C143.891 158.42 143.975 158.098 143.975 157.766C143.975 157.32 143.84 156.955 143.57 156.67C143.301 156.385 142.941 156.242 142.492 156.242C141.953 156.242 141.533 156.396 141.232 156.705C140.936 157.01 140.787 157.436 140.787 157.982H139.703C139.703 157.197 139.955 156.562 140.459 156.078C140.967 155.594 141.645 155.352 142.492 155.352C143.285 155.352 143.912 155.561 144.373 155.979C144.834 156.393 145.064 156.945 145.064 157.637C145.064 158.477 144.529 159.477 143.459 160.637L141.174 163.115H145.457V164ZM146.934 164.732H146.002L149.564 155.469H150.49L146.934 164.732ZM157.141 164H151.551V163.221L154.504 159.939C154.941 159.443 155.242 159.041 155.406 158.732C155.574 158.42 155.658 158.098 155.658 157.766C155.658 157.32 155.523 156.955 155.254 156.67C154.984 156.385 154.625 156.242 154.176 156.242C153.637 156.242 153.217 156.396 152.916 156.705C152.619 157.01 152.471 157.436 152.471 157.982H151.387C151.387 157.197 151.639 156.562 152.143 156.078C152.65 155.594 153.328 155.352 154.176 155.352C154.969 155.352 155.596 155.561 156.057 155.979C156.518 156.393 156.748 156.945 156.748 157.637C156.748 158.477 156.213 159.477 155.143 160.637L152.857 163.115H157.141V164ZM158.424 163.432C158.424 163.244 158.479 163.088 158.588 162.963C158.701 162.838 158.869 162.775 159.092 162.775C159.314 162.775 159.482 162.838 159.596 162.963C159.713 163.088 159.771 163.244 159.771 163.432C159.771 163.611 159.713 163.762 159.596 163.883C159.482 164.004 159.314 164.064 159.092 164.064C158.869 164.064 158.701 164.004 158.588 163.883C158.479 163.762 158.424 163.611 158.424 163.432ZM166.92 160.9C166.92 161.865 166.699 162.643 166.258 163.232C165.816 163.822 165.219 164.117 164.465 164.117C163.695 164.117 163.09 163.873 162.648 163.385V166.438H161.564V157.66H162.555L162.607 158.363C163.049 157.816 163.662 157.543 164.447 157.543C165.209 157.543 165.811 157.83 166.252 158.404C166.697 158.979 166.92 159.777 166.92 160.801V160.9ZM165.836 160.777C165.836 160.062 165.684 159.498 165.379 159.084C165.074 158.67 164.656 158.463 164.125 158.463C163.469 158.463 162.977 158.754 162.648 159.336V162.365C162.973 162.943 163.469 163.232 164.137 163.232C164.656 163.232 165.068 163.027 165.373 162.617C165.682 162.203 165.836 161.59 165.836 160.777ZM169.328 157.66L169.363 158.457C169.848 157.848 170.48 157.543 171.262 157.543C172.602 157.543 173.277 158.299 173.289 159.811V164H172.205V159.805C172.201 159.348 172.096 159.01 171.889 158.791C171.686 158.572 171.367 158.463 170.934 158.463C170.582 158.463 170.273 158.557 170.008 158.744C169.742 158.932 169.535 159.178 169.387 159.482V164H168.303V157.66H169.328ZM174.666 160.777C174.666 159.789 174.895 159.004 175.352 158.422C175.809 157.836 176.414 157.543 177.168 157.543C177.941 157.543 178.545 157.816 178.979 158.363L179.031 157.66H180.021V163.848C180.021 164.668 179.777 165.314 179.289 165.787C178.805 166.26 178.152 166.496 177.332 166.496C176.875 166.496 176.428 166.398 175.99 166.203C175.553 166.008 175.219 165.74 174.988 165.4L175.551 164.75C176.016 165.324 176.584 165.611 177.256 165.611C177.783 165.611 178.193 165.463 178.486 165.166C178.783 164.869 178.932 164.451 178.932 163.912V163.367C178.498 163.867 177.906 164.117 177.156 164.117C176.414 164.117 175.812 163.818 175.352 163.221C174.895 162.623 174.666 161.809 174.666 160.777ZM175.756 160.9C175.756 161.615 175.902 162.178 176.195 162.588C176.488 162.994 176.898 163.197 177.426 163.197C178.109 163.197 178.611 162.887 178.932 162.266V159.371C178.6 158.766 178.102 158.463 177.438 158.463C176.91 158.463 176.498 158.668 176.201 159.078C175.904 159.488 175.756 160.096 175.756 160.9Z" fill="black"/>
<path d="M145.457 228H139.867V227.221L142.82 223.939C143.258 223.443 143.559 223.041 143.723 222.732C143.891 222.42 143.975 222.098 143.975 221.766C143.975 221.32 143.84 220.955 143.57 220.67C143.301 220.385 142.941 220.242 142.492 220.242C141.953 220.242 141.533 220.396 141.232 220.705C140.936 221.01 140.787 221.436 140.787 221.982H139.703C139.703 221.197 139.955 220.562 140.459 220.078C140.967 219.594 141.645 219.352 142.492 219.352C143.285 219.352 143.912 219.561 144.373 219.979C144.834 220.393 145.064 220.945 145.064 221.637C145.064 222.477 144.529 223.477 143.459 224.637L141.174 227.115H145.457V228ZM146.934 228.732H146.002L149.564 219.469H150.49L146.934 228.732ZM153.127 223.207H153.941C154.453 223.199 154.855 223.064 155.148 222.803C155.441 222.541 155.588 222.188 155.588 221.742C155.588 220.742 155.09 220.242 154.094 220.242C153.625 220.242 153.25 220.377 152.969 220.646C152.691 220.912 152.553 221.266 152.553 221.707H151.469C151.469 221.031 151.715 220.471 152.207 220.025C152.703 219.576 153.332 219.352 154.094 219.352C154.898 219.352 155.529 219.564 155.986 219.99C156.443 220.416 156.672 221.008 156.672 221.766C156.672 222.137 156.551 222.496 156.309 222.844C156.07 223.191 155.744 223.451 155.33 223.623C155.799 223.771 156.16 224.018 156.414 224.361C156.672 224.705 156.801 225.125 156.801 225.621C156.801 226.387 156.551 226.994 156.051 227.443C155.551 227.893 154.9 228.117 154.1 228.117C153.299 228.117 152.646 227.9 152.143 227.467C151.643 227.033 151.393 226.461 151.393 225.75H152.482C152.482 226.199 152.629 226.559 152.922 226.828C153.215 227.098 153.607 227.232 154.1 227.232C154.623 227.232 155.023 227.096 155.301 226.822C155.578 226.549 155.717 226.156 155.717 225.645C155.717 225.148 155.564 224.768 155.26 224.502C154.955 224.236 154.516 224.1 153.941 224.092H153.127V223.207ZM158.424 227.432C158.424 227.244 158.479 227.088 158.588 226.963C158.701 226.838 158.869 226.775 159.092 226.775C159.314 226.775 159.482 226.838 159.596 226.963C159.713 227.088 159.771 227.244 159.771 227.432C159.771 227.611 159.713 227.762 159.596 227.883C159.482 228.004 159.314 228.064 159.092 228.064C158.869 228.064 158.701 228.004 158.588 227.883C158.479 227.762 158.424 227.611 158.424 227.432ZM166.92 224.9C166.92 225.865 166.699 226.643 166.258 227.232C165.816 227.822 165.219 228.117 164.465 228.117C163.695 228.117 163.09 227.873 162.648 227.385V230.438H161.564V221.66H162.555L162.607 222.363C163.049 221.816 163.662 221.543 164.447 221.543C165.209 221.543 165.811 221.83 166.252 222.404C166.697 222.979 166.92 223.777 166.92 224.801V224.9ZM165.836 224.777C165.836 224.062 165.684 223.498 165.379 223.084C165.074 222.67 164.656 222.463 164.125 222.463C163.469 222.463 162.977 222.754 162.648 223.336V226.365C162.973 226.943 163.469 227.232 164.137 227.232C164.656 227.232 165.068 227.027 165.373 226.617C165.682 226.203 165.836 225.59 165.836 224.777ZM169.328 221.66L169.363 222.457C169.848 221.848 170.48 221.543 171.262 221.543C172.602 221.543 173.277 222.299 173.289 223.811V228H172.205V223.805C172.201 223.348 172.096 223.01 171.889 222.791C171.686 222.572 171.367 222.463 170.934 222.463C170.582 222.463 170.273 222.557 170.008 222.744C169.742 222.932 169.535 223.178 169.387 223.482V228H168.303V221.66H169.328ZM174.666 224.777C174.666 223.789 174.895 223.004 175.352 222.422C175.809 221.836 176.414 221.543 177.168 221.543C177.941 221.543 178.545 221.816 178.979 222.363L179.031 221.66H180.021V227.848C180.021 228.668 179.777 229.314 179.289 229.787C178.805 230.26 178.152 230.496 177.332 230.496C176.875 230.496 176.428 230.398 175.99 230.203C175.553 230.008 175.219 229.74 174.988 229.4L175.551 228.75C176.016 229.324 176.584 229.611 177.256 229.611C177.783 229.611 178.193 229.463 178.486 229.166C178.783 228.869 178.932 228.451 178.932 227.912V227.367C178.498 227.867 177.906 228.117 177.156 228.117C176.414 228.117 175.812 227.818 175.352 227.221C174.895 226.623 174.666 225.809 174.666 224.777ZM175.756 224.9C175.756 225.615 175.902 226.178 176.195 226.588C176.488 226.994 176.898 227.197 177.426 227.197C178.109 227.197 178.611 226.887 178.932 226.266V223.371C178.6 222.766 178.102 222.463 177.438 222.463C176.91 222.463 176.498 222.668 176.201 223.078C175.904 223.488 175.756 224.096 175.756 224.9Z" fill="black"/>
<path d="M205.443 31.207H206.258C206.77 31.1992 207.172 31.0645 207.465 30.8027C207.758 30.541 207.904 30.1875 207.904 29.7422C207.904 28.7422 207.406 28.2422 206.41 28.2422C205.941 28.2422 205.566 28.377 205.285 28.6465C205.008 28.9121 204.869 29.2656 204.869 29.707H203.785C203.785 29.0312 204.031 28.4707 204.523 28.0254C205.02 27.5762 205.648 27.3516 206.41 27.3516C207.215 27.3516 207.846 27.5645 208.303 27.9902C208.76 28.416 208.988 29.0078 208.988 29.7656C208.988 30.1367 208.867 30.4961 208.625 30.8438C208.387 31.1914 208.061 31.4512 207.646 31.623C208.115 31.7715 208.477 32.0176 208.73 32.3613C208.988 32.7051 209.117 33.125 209.117 33.6211C209.117 34.3867 208.867 34.9941 208.367 35.4434C207.867 35.8926 207.217 36.1172 206.416 36.1172C205.615 36.1172 204.963 35.9004 204.459 35.4668C203.959 35.0332 203.709 34.4609 203.709 33.75H204.799C204.799 34.1992 204.945 34.5586 205.238 34.8281C205.531 35.0977 205.924 35.2324 206.416 35.2324C206.939 35.2324 207.34 35.0957 207.617 34.8223C207.895 34.5488 208.033 34.1562 208.033 33.6445C208.033 33.1484 207.881 32.7676 207.576 32.502C207.271 32.2363 206.832 32.0996 206.258 32.0918H205.443V31.207ZM210.934 36.7324H210.002L213.564 27.4688H214.49L210.934 36.7324ZM220.9 32.3613C220.9 33.6309 220.684 34.5742 220.25 35.1914C219.816 35.8086 219.139 36.1172 218.217 36.1172C217.307 36.1172 216.633 35.8164 216.195 35.2148C215.758 34.6094 215.531 33.707 215.516 32.5078V31.0605C215.516 29.8066 215.732 28.875 216.166 28.2656C216.6 27.6562 217.279 27.3516 218.205 27.3516C219.123 27.3516 219.799 27.6465 220.232 28.2363C220.666 28.8223 220.889 29.7285 220.9 30.9551V32.3613ZM219.816 30.8789C219.816 29.9609 219.688 29.293 219.43 28.875C219.172 28.4531 218.764 28.2422 218.205 28.2422C217.65 28.2422 217.246 28.4512 216.992 28.8691C216.738 29.2871 216.607 29.9297 216.6 30.7969V32.5312C216.6 33.4531 216.732 34.1348 216.998 34.5762C217.268 35.0137 217.674 35.2324 218.217 35.2324C218.752 35.2324 219.148 35.0254 219.406 34.6113C219.668 34.1973 219.805 33.5449 219.816 32.6543V30.8789ZM222.424 35.4316C222.424 35.2441 222.479 35.0879 222.588 34.9629C222.701 34.8379 222.869 34.7754 223.092 34.7754C223.314 34.7754 223.482 34.8379 223.596 34.9629C223.713 35.0879 223.771 35.2441 223.771 35.4316C223.771 35.6113 223.713 35.7617 223.596 35.8828C223.482 36.0039 223.314 36.0645 223.092 36.0645C222.869 36.0645 222.701 36.0039 222.588 35.8828C222.479 35.7617 222.424 35.6113 222.424 35.4316ZM230.92 32.9004C230.92 33.8652 230.699 34.6426 230.258 35.2324C229.816 35.8223 229.219 36.1172 228.465 36.1172C227.695 36.1172 227.09 35.873 226.648 35.3848V38.4375H225.564V29.6602H226.555L226.607 30.3633C227.049 29.8164 227.662 29.543 228.447 29.543C229.209 29.543 229.811 29.8301 230.252 30.4043C230.697 30.9785 230.92 31.7773 230.92 32.8008V32.9004ZM229.836 32.7773C229.836 32.0625 229.684 31.498 229.379 31.084C229.074 30.6699 228.656 30.4629 228.125 30.4629C227.469 30.4629 226.977 30.7539 226.648 31.3359V34.3652C226.973 34.9434 227.469 35.2324 228.137 35.2324C228.656 35.2324 229.068 35.0273 229.373 34.6172C229.682 34.2031 229.836 33.5898 229.836 32.7773ZM233.328 29.6602L233.363 30.457C233.848 29.8477 234.48 29.543 235.262 29.543C236.602 29.543 237.277 30.2988 237.289 31.8105V36H236.205V31.8047C236.201 31.3477 236.096 31.0098 235.889 30.791C235.686 30.5723 235.367 30.4629 234.934 30.4629C234.582 30.4629 234.273 30.5566 234.008 30.7441C233.742 30.9316 233.535 31.1777 233.387 31.4824V36H232.303V29.6602H233.328ZM238.666 32.7773C238.666 31.7891 238.895 31.0039 239.352 30.4219C239.809 29.8359 240.414 29.543 241.168 29.543C241.941 29.543 242.545 29.8164 242.979 30.3633L243.031 29.6602H244.021V35.8477C244.021 36.668 243.777 37.3145 243.289 37.7871C242.805 38.2598 242.152 38.4961 241.332 38.4961C240.875 38.4961 240.428 38.3984 239.99 38.2031C239.553 38.0078 239.219 37.7402 238.988 37.4004L239.551 36.75C240.016 37.3242 240.584 37.6113 241.256 37.6113C241.783 37.6113 242.193 37.4629 242.486 37.166C242.783 36.8691 242.932 36.4512 242.932 35.9121V35.3672C242.498 35.8672 241.906 36.1172 241.156 36.1172C240.414 36.1172 239.812 35.8184 239.352 35.2207C238.895 34.623 238.666 33.8086 238.666 32.7773ZM239.756 32.9004C239.756 33.6152 239.902 34.1777 240.195 34.5879C240.488 34.9941 240.898 35.1973 241.426 35.1973C242.109 35.1973 242.611 34.8867 242.932 34.2656V31.3711C242.6 30.7656 242.102 30.4629 241.438 30.4629C240.91 30.4629 240.498 30.668 240.201 31.0781C239.904 31.4883 239.756 32.0957 239.756 32.9004Z" fill="black"/>
<path d="M205.443 95.207H206.258C206.77 95.1992 207.172 95.0645 207.465 94.8027C207.758 94.541 207.904 94.1875 207.904 93.7422C207.904 92.7422 207.406 92.2422 206.41 92.2422C205.941 92.2422 205.566 92.377 205.285 92.6465C205.008 92.9121 204.869 93.2656 204.869 93.707H203.785C203.785 93.0312 204.031 92.4707 204.523 92.0254C205.02 91.5762 205.648 91.3516 206.41 91.3516C207.215 91.3516 207.846 91.5645 208.303 91.9902C208.76 92.416 208.988 93.0078 208.988 93.7656C208.988 94.1367 208.867 94.4961 208.625 94.8438C208.387 95.1914 208.061 95.4512 207.646 95.623C208.115 95.7715 208.477 96.0176 208.73 96.3613C208.988 96.7051 209.117 97.125 209.117 97.6211C209.117 98.3867 208.867 98.9941 208.367 99.4434C207.867 99.8926 207.217 100.117 206.416 100.117C205.615 100.117 204.963 99.9004 204.459 99.4668C203.959 99.0332 203.709 98.4609 203.709 97.75H204.799C204.799 98.1992 204.945 98.5586 205.238 98.8281C205.531 99.0977 205.924 99.2324 206.416 99.2324C206.939 99.2324 207.34 99.0957 207.617 98.8223C207.895 98.5488 208.033 98.1562 208.033 97.6445C208.033 97.1484 207.881 96.7676 207.576 96.502C207.271 96.2363 206.832 96.0996 206.258 96.0918H205.443V95.207ZM210.934 100.732H210.002L213.564 91.4688H214.49L210.934 100.732ZM219.113 100H218.023V92.7754L215.838 93.5781V92.5938L218.943 91.4277H219.113V100ZM222.424 99.4316C222.424 99.2441 222.479 99.0879 222.588 98.9629C222.701 98.8379 222.869 98.7754 223.092 98.7754C223.314 98.7754 223.482 98.8379 223.596 98.9629C223.713 99.0879 223.771 99.2441 223.771 99.4316C223.771 99.6113 223.713 99.7617 223.596 99.8828C223.482 100.004 223.314 100.064 223.092 100.064C222.869 100.064 222.701 100.004 222.588 99.8828C222.479 99.7617 222.424 99.6113 222.424 99.4316ZM230.92 96.9004C230.92 97.8652 230.699 98.6426 230.258 99.2324C229.816 99.8223 229.219 100.117 228.465 100.117C227.695 100.117 227.09 99.873 226.648 99.3848V102.438H225.564V93.6602H226.555L226.607 94.3633C227.049 93.8164 227.662 93.543 228.447 93.543C229.209 93.543 229.811 93.8301 230.252 94.4043C230.697 94.9785 230.92 95.7773 230.92 96.8008V96.9004ZM229.836 96.7773C229.836 96.0625 229.684 95.498 229.379 95.084C229.074 94.6699 228.656 94.4629 228.125 94.4629C227.469 94.4629 226.977 94.7539 226.648 95.3359V98.3652C226.973 98.9434 227.469 99.2324 228.137 99.2324C228.656 99.2324 229.068 99.0273 229.373 98.6172C229.682 98.2031 229.836 97.5898 229.836 96.7773ZM233.328 93.6602L233.363 94.457C233.848 93.8477 234.48 93.543 235.262 93.543C236.602 93.543 237.277 94.2988 237.289 95.8105V100H236.205V95.8047C236.201 95.3477 236.096 95.0098 235.889 94.791C235.686 94.5723 235.367 94.4629 234.934 94.4629C234.582 94.4629 234.273 94.5566 234.008 94.7441C233.742 94.9316 233.535 95.1777 233.387 95.4824V100H232.303V93.6602H233.328ZM238.666 96.7773C238.666 95.7891 238.895 95.0039 239.352 94.4219C239.809 93.8359 240.414 93.543 241.168 93.543C241.941 93.543 242.545 93.8164 242.979 94.3633L243.031 93.6602H244.021V99.8477C244.021 100.668 243.777 101.314 243.289 101.787C242.805 102.26 242.152 102.496 241.332 102.496C240.875 102.496 240.428 102.398 239.99 102.203C239.553 102.008 239.219 101.74 238.988 101.4L239.551 100.75C240.016 101.324 240.584 101.611 241.256 101.611C241.783 101.611 242.193 101.463 242.486 101.166C242.783 100.869 242.932 100.451 242.932 99.9121V99.3672C242.498 99.8672 241.906 100.117 241.156 100.117C240.414 100.117 239.812 99.8184 239.352 99.2207C238.895 98.623 238.666 97.8086 238.666 96.7773ZM239.756 96.9004C239.756 97.6152 239.902 98.1777 240.195 98.5879C240.488 98.9941 240.898 99.1973 241.426 99.1973C242.109 99.1973 242.611 98.8867 242.932 98.2656V95.3711C242.6 94.7656 242.102 94.4629 241.438 94.4629C240.91 94.4629 240.498 94.668 240.201 95.0781C239.904 95.4883 239.756 96.0957 239.756 96.9004Z" fill="black"/>
<path d="M205.443 159.207H206.258C206.77 159.199 207.172 159.064 207.465 158.803C207.758 158.541 207.904 158.188 207.904 157.742C207.904 156.742 207.406 156.242 206.41 156.242C205.941 156.242 205.566 156.377 205.285 156.646C205.008 156.912 204.869 157.266 204.869 157.707H203.785C203.785 157.031 204.031 156.471 204.523 156.025C205.02 155.576 205.648 155.352 206.41 155.352C207.215 155.352 207.846 155.564 208.303 155.99C208.76 156.416 208.988 157.008 208.988 157.766C208.988 158.137 208.867 158.496 208.625 158.844C208.387 159.191 208.061 159.451 207.646 159.623C208.115 159.771 208.477 160.018 208.73 160.361C208.988 160.705 209.117 161.125 209.117 161.621C209.117 162.387 208.867 162.994 208.367 163.443C207.867 163.893 207.217 164.117 206.416 164.117C205.615 164.117 204.963 163.9 204.459 163.467C203.959 163.033 203.709 162.461 203.709 161.75H204.799C204.799 162.199 204.945 162.559 205.238 162.828C205.531 163.098 205.924 163.232 206.416 163.232C206.939 163.232 207.34 163.096 207.617 162.822C207.895 162.549 208.033 162.156 208.033 161.645C208.033 161.148 207.881 160.768 207.576 160.502C207.271 160.236 206.832 160.1 206.258 160.092H205.443V159.207ZM210.934 164.732H210.002L213.564 155.469H214.49L210.934 164.732ZM221.141 164H215.551V163.221L218.504 159.939C218.941 159.443 219.242 159.041 219.406 158.732C219.574 158.42 219.658 158.098 219.658 157.766C219.658 157.32 219.523 156.955 219.254 156.67C218.984 156.385 218.625 156.242 218.176 156.242C217.637 156.242 217.217 156.396 216.916 156.705C216.619 157.01 216.471 157.436 216.471 157.982H215.387C215.387 157.197 215.639 156.562 216.143 156.078C216.65 155.594 217.328 155.352 218.176 155.352C218.969 155.352 219.596 155.561 220.057 155.979C220.518 156.393 220.748 156.945 220.748 157.637C220.748 158.477 220.213 159.477 219.143 160.637L216.857 163.115H221.141V164ZM222.424 163.432C222.424 163.244 222.479 163.088 222.588 162.963C222.701 162.838 222.869 162.775 223.092 162.775C223.314 162.775 223.482 162.838 223.596 162.963C223.713 163.088 223.771 163.244 223.771 163.432C223.771 163.611 223.713 163.762 223.596 163.883C223.482 164.004 223.314 164.064 223.092 164.064C222.869 164.064 222.701 164.004 222.588 163.883C222.479 163.762 222.424 163.611 222.424 163.432ZM230.92 160.9C230.92 161.865 230.699 162.643 230.258 163.232C229.816 163.822 229.219 164.117 228.465 164.117C227.695 164.117 227.09 163.873 226.648 163.385V166.438H225.564V157.66H226.555L226.607 158.363C227.049 157.816 227.662 157.543 228.447 157.543C229.209 157.543 229.811 157.83 230.252 158.404C230.697 158.979 230.92 159.777 230.92 160.801V160.9ZM229.836 160.777C229.836 160.062 229.684 159.498 229.379 159.084C229.074 158.67 228.656 158.463 228.125 158.463C227.469 158.463 226.977 158.754 226.648 159.336V162.365C226.973 162.943 227.469 163.232 228.137 163.232C228.656 163.232 229.068 163.027 229.373 162.617C229.682 162.203 229.836 161.59 229.836 160.777ZM233.328 157.66L233.363 158.457C233.848 157.848 234.48 157.543 235.262 157.543C236.602 157.543 237.277 158.299 237.289 159.811V164H236.205V159.805C236.201 159.348 236.096 159.01 235.889 158.791C235.686 158.572 235.367 158.463 234.934 158.463C234.582 158.463 234.273 158.557 234.008 158.744C233.742 158.932 233.535 159.178 233.387 159.482V164H232.303V157.66H233.328ZM238.666 160.777C238.666 159.789 238.895 159.004 239.352 158.422C239.809 157.836 240.414 157.543 241.168 157.543C241.941 157.543 242.545 157.816 242.979 158.363L243.031 157.66H244.021V163.848C244.021 164.668 243.777 165.314 243.289 165.787C242.805 166.26 242.152 166.496 241.332 166.496C240.875 166.496 240.428 166.398 239.99 166.203C239.553 166.008 239.219 165.74 238.988 165.4L239.551 164.75C240.016 165.324 240.584 165.611 241.256 165.611C241.783 165.611 242.193 165.463 242.486 165.166C242.783 164.869 242.932 164.451 242.932 163.912V163.367C242.498 163.867 241.906 164.117 241.156 164.117C240.414 164.117 239.812 163.818 239.352 163.221C238.895 162.623 238.666 161.809 238.666 160.777ZM239.756 160.9C239.756 161.615 239.902 162.178 240.195 162.588C240.488 162.994 240.898 163.197 241.426 163.197C242.109 163.197 242.611 162.887 242.932 162.266V159.371C242.6 158.766 242.102 158.463 241.438 158.463C240.91 158.463 240.498 158.668 240.201 159.078C239.904 159.488 239.756 160.096 239.756 160.9Z" fill="black"/>
<path d="M205.443 223.207H206.258C206.77 223.199 207.172 223.064 207.465 222.803C207.758 222.541 207.904 222.188 207.904 221.742C207.904 220.742 207.406 220.242 206.41 220.242C205.941 220.242 205.566 220.377 205.285 220.646C205.008 220.912 204.869 221.266 204.869 221.707H203.785C203.785 221.031 204.031 220.471 204.523 220.025C205.02 219.576 205.648 219.352 206.41 219.352C207.215 219.352 207.846 219.564 208.303 219.99C208.76 220.416 208.988 221.008 208.988 221.766C208.988 222.137 208.867 222.496 208.625 222.844C208.387 223.191 208.061 223.451 207.646 223.623C208.115 223.771 208.477 224.018 208.73 224.361C208.988 224.705 209.117 225.125 209.117 225.621C209.117 226.387 208.867 226.994 208.367 227.443C207.867 227.893 207.217 228.117 206.416 228.117C205.615 228.117 204.963 227.9 204.459 227.467C203.959 227.033 203.709 226.461 203.709 225.75H204.799C204.799 226.199 204.945 226.559 205.238 226.828C205.531 227.098 205.924 227.232 206.416 227.232C206.939 227.232 207.34 227.096 207.617 226.822C207.895 226.549 208.033 226.156 208.033 225.645C208.033 225.148 207.881 224.768 207.576 224.502C207.271 224.236 206.832 224.1 206.258 224.092H205.443V223.207ZM210.934 228.732H210.002L213.564 219.469H214.49L210.934 228.732ZM217.127 223.207H217.941C218.453 223.199 218.855 223.064 219.148 222.803C219.441 222.541 219.588 222.188 219.588 221.742C219.588 220.742 219.09 220.242 218.094 220.242C217.625 220.242 217.25 220.377 216.969 220.646C216.691 220.912 216.553 221.266 216.553 221.707H215.469C215.469 221.031 215.715 220.471 216.207 220.025C216.703 219.576 217.332 219.352 218.094 219.352C218.898 219.352 219.529 219.564 219.986 219.99C220.443 220.416 220.672 221.008 220.672 221.766C220.672 222.137 220.551 222.496 220.309 222.844C220.07 223.191 219.744 223.451 219.33 223.623C219.799 223.771 220.16 224.018 220.414 224.361C220.672 224.705 220.801 225.125 220.801 225.621C220.801 226.387 220.551 226.994 220.051 227.443C219.551 227.893 218.9 228.117 218.1 228.117C217.299 228.117 216.646 227.9 216.143 227.467C215.643 227.033 215.393 226.461 215.393 225.75H216.482C216.482 226.199 216.629 226.559 216.922 226.828C217.215 227.098 217.607 227.232 218.1 227.232C218.623 227.232 219.023 227.096 219.301 226.822C219.578 226.549 219.717 226.156 219.717 225.645C219.717 225.148 219.564 224.768 219.26 224.502C218.955 224.236 218.516 224.1 217.941 224.092H217.127V223.207ZM222.424 227.432C222.424 227.244 222.479 227.088 222.588 226.963C222.701 226.838 222.869 226.775 223.092 226.775C223.314 226.775 223.482 226.838 223.596 226.963C223.713 227.088 223.771 227.244 223.771 227.432C223.771 227.611 223.713 227.762 223.596 227.883C223.482 228.004 223.314 228.064 223.092 228.064C222.869 228.064 222.701 228.004 222.588 227.883C222.479 227.762 222.424 227.611 222.424 227.432ZM230.92 224.9C230.92 225.865 230.699 226.643 230.258 227.232C229.816 227.822 229.219 228.117 228.465 228.117C227.695 228.117 227.09 227.873 226.648 227.385V230.438H225.564V221.66H226.555L226.607 222.363C227.049 221.816 227.662 221.543 228.447 221.543C229.209 221.543 229.811 221.83 230.252 222.404C230.697 222.979 230.92 223.777 230.92 224.801V224.9ZM229.836 224.777C229.836 224.062 229.684 223.498 229.379 223.084C229.074 222.67 228.656 222.463 228.125 222.463C227.469 222.463 226.977 222.754 226.648 223.336V226.365C226.973 226.943 227.469 227.232 228.137 227.232C228.656 227.232 229.068 227.027 229.373 226.617C229.682 226.203 229.836 225.59 229.836 224.777ZM233.328 221.66L233.363 222.457C233.848 221.848 234.48 221.543 235.262 221.543C236.602 221.543 237.277 222.299 237.289 223.811V228H236.205V223.805C236.201 223.348 236.096 223.01 235.889 222.791C235.686 222.572 235.367 222.463 234.934 222.463C234.582 222.463 234.273 222.557 234.008 222.744C233.742 222.932 233.535 223.178 233.387 223.482V228H232.303V221.66H233.328ZM238.666 224.777C238.666 223.789 238.895 223.004 239.352 222.422C239.809 221.836 240.414 221.543 241.168 221.543C241.941 221.543 242.545 221.816 242.979 222.363L243.031 221.66H244.021V227.848C244.021 228.668 243.777 229.314 243.289 229.787C242.805 230.26 242.152 230.496 241.332 230.496C240.875 230.496 240.428 230.398 239.99 230.203C239.553 230.008 239.219 229.74 238.988 229.4L239.551 228.75C240.016 229.324 240.584 229.611 241.256 229.611C241.783 229.611 242.193 229.463 242.486 229.166C242.783 228.869 242.932 228.451 242.932 227.912V227.367C242.498 227.867 241.906 228.117 241.156 228.117C240.414 228.117 239.812 227.818 239.352 227.221C238.895 226.623 238.666 225.809 238.666 224.777ZM239.756 224.9C239.756 225.615 239.902 226.178 240.195 226.588C240.488 226.994 240.898 227.197 241.426 227.197C242.109 227.197 242.611 226.887 242.932 226.266V223.371C242.6 222.766 242.102 222.463 241.438 222.463C240.91 222.463 240.498 222.668 240.201 223.078C239.904 223.488 239.756 224.096 239.756 224.9Z" fill="black"/>
</svg>
